<svg xmlns="http://www.w3.org/2000/svg" viewBox="0 0 4680 3120"><g data-name="9" fill="#000000" class="color000 svgShape"><rect width="4680" height="3120" fill="#ffffff" data-name="9" opacity="0" class="colorfff svgShape"/><path fill="#ffe4c0" d="M3182.15,2526.21c-489.52-2.12-1208.36-25.62-1691.55-19.87-473.16,5.64-689.76-374.64-689.74-963.92,0-438.14,408.53-1207.23,1330.53-1146.34C2698,433.49,2670.05,844.72,3294.67,831.25c574.3-12.38,758.53,627,758.53,870.45C4053.2,2185.23,3695.1,2528.43,3182.15,2526.21Z" class="colorffe4c0 svgShape"/><ellipse cx="2392.92" cy="2501.69" fill="#cc584e" rx="1473.63" ry="120.79" class="colorcc584e svgShape"/><ellipse cx="2404.62" cy="2564.52" fill="#cc584e" rx="1043.98" ry="161.34" class="colorcc584e svgShape"/><polygon fill="#6a6a6a" points="2184 2352.49 1913.18 2477.32 1913.18 2504.97 2877.67 2504.97 2877.67 2477.32 2604.4 2352.49 2184 2352.49" class="color6a6a6a svgShape"/><rect width="420.57" height="535.27" x="2184" y="1817.44" fill="#6a6a6a" class="color6a6a6a svgShape"/><path fill="#2f2f2f" d="M3666.92,1985.36v-1207a103.84,103.84,0,0,0-103.84-103.84H1222.76a103.85,103.85,0,0,0-103.85,103.84v1207Z" class="color2f2f2f svgShape"/><rect width="964.49" height="27.65" x="1913.18" y="2477.31" fill="#184655" opacity=".3" class="color184655 svgShape"/><rect width="420.4" height="62.81" x="2184" y="2289.67" fill="#3a3a3a" opacity=".3" class="color3a3a3a svgShape"/><path fill="#8a8a8a" d="M1118.91,1985.36v193.42c0,40.23,26.6,72.85,59.4,72.85H3607.53c32.8,0,59.39-32.62,59.39-72.85V1985.36Z" class="color8a8a8a svgShape"/><path fill="#bbd9f5" d="M3607.28,781.55V1932.94H1178.56V781.55c0-30.18,25.35-54.64,56.62-54.64H3550.66C3581.93,726.91,3607.28,751.37,3607.28,781.55Z" class="colorbbd9f5 svgShape"/><circle cx="2392.92" cy="2118.5" r="62.64" fill="#6a6a6a" class="color6a6a6a svgShape"/><path fill="#faba97" d="M2297.1,1061.28c9.86,6.71,22.4,12.33,30.77,16.06a139.55,139.55,0,0,0-27.53-22.74c-21.34-13.52-32.9-33.38-19.9-31.72,7.34.93,43.27,22.61,59.18,32.39.2-.58.4-1.16.59-1.74-16.05-9.25-34.65-28.85-44-34.81-10.43-6.66-19.41-24-10.43-26.06,7.65-1.73,50.16,28.05,62.59,36.91.24-.72.39-1.15.39-1.15s-18.24-20.42-26.49-26.5-28.24-19.11-17.81-25.19,26.06,9.56,50.82,22.15c22.14,11.27,67.32,36.92,67.32,36.92s-3-14.33-4.34-17.81-13.47-16.94-14.77-30.4,10-20.42,15.2-12.16,20.41,25.19,33.45,43.43,19.11,51.25,19.11,51.25l14.76,8.26c10.86,34.31-10.85,83.39-10.85,83.39l-46-26.06c-64.72-7.38-103.67-35.91-103.67-37.64,0,0-39.09-24.62-45.75-32.15S2282.63,1051.44,2297.1,1061.28Z" class="colorfaba97 svgShape"/><path fill="#f34f51" d="M2452.16,1168.57s217.66,115.62,314.81,133.12c81.23,14.57,157-107.89,179.69-148.53,4.45-8,6.85-12.79,6.85-12.79l-48.57-250s-29.16,24.61-64.12,100.38-91.35,171-91.35,171-172.92-43.73-260.38-88.42l-24.53,63.19Z" class="colorf34f51 svgShape"/><path fill="#cf2943" d="M2452.16,1168.57s217.66,115.62,314.81,133.12c81.23,14.57,157-107.89,179.69-148.53l-34-21s-52.38,84.41-104.75,117.84c-48,30.68-308.12-75-349.89-95.64Z" class="colorcf2943 svgShape"/><path fill="#f34f51" d="M3293.6,1445.45s-38.8-42.42-8.17-145.47a433.91,433.91,0,0,1,25.27-64.42q7.08-14.93,15.94-31c57.65-104.79,61.58-210.89,55.69-278.28-3.63-41.37-10.91-68.08-11.7-71a1.1,1.1,0,0,0-.09-.26l-4.84-1.88-156.08-61.23-1.52-.61-200.82,22.65-102.34,76.47c-19.43,33-48.06,184.18-10.39,294,63.85,186.15-34.31,449.55-34.31,449.55l466.57-81.1-.65-2.13Z" class="colorf34f51 svgShape"/><path fill="#cf2943" d="M3197.77,1170l-277.88,10.18S3081.38,1236.89,3197.77,1170Z" class="colorcf2943 svgShape"/><path fill="#1b89ac" d="M3094.68,1413.39l-275.44,102.5a19.19,19.19,0,0,1-24.68-11.29L2671,1169.53a19.19,19.19,0,0,1,11.29-24.68l275.45-102.5a19.19,19.19,0,0,1,24.68,11.29L3106,1388.71A19.19,19.19,0,0,1,3094.68,1413.39Z" class="color1b89ac svgShape"/><polygon fill="#89d9ff" points="2943.72 1047.58 3068.56 1386.15 2821.2 1478.2 2811 1450.81 2696.36 1139.63 2908.76 1060.59 2943.72 1047.58" class="color89d9ff svgShape"/><rect width="201.7" height="45.01" x="2749.46" y="1143.13" fill="#1b89ac" transform="rotate(-20.77 2849.98 1165.554)" class="color1b89ac svgShape"/><path fill="#89d9ff" d="M2943.71,1047.58l124.85,338.57-247.36,92-10.2-27.39c37.85-20.29,114.59-66.17,146.79-119.7,36.81-61.22-23-209.17-49-270.53Z" class="color89d9ff svgShape"/><path fill="#f5982a" d="M2867.71,1053.39l-15.1,5.62a6,6,0,0,1-7.33-2.63,37,37,0,0,0-68.69,25.56,5.94,5.94,0,0,1-3.82,6.78l-15.1,5.62a5.87,5.87,0,0,0-3.46,7.55l11.88,31.9a5.88,5.88,0,0,0,7.55,3.45l110-41a5.87,5.87,0,0,0,3.45-7.55l-11.87-31.9A5.87,5.87,0,0,0,2867.71,1053.39Zm-49.7,34.77a15.26,15.26,0,1,1,9-19.62A15.26,15.26,0,0,1,2818,1088.16Z" class="colorf5982a svgShape"/><path fill="#f5bb1b" d="M2767.52,1114.33s0,14.64,7.76,15.36,102-36.78,102-36.78S2766.81,1105,2767.52,1114.33Z" class="colorf5bb1b svgShape"/><path fill="#1b89ac" d="M2961.43 1217l-169.76 63.18a3.82 3.82 0 01-4.91-2.25h0a3.81 3.81 0 012.25-4.9l169.76-63.18a3.83 3.83 0 014.91 2.25h0A3.81 3.81 0 012961.43 1217zM2970.51 1241.42l-169.76 63.17a3.81 3.81 0 01-4.9-2.24h0a3.82 3.82 0 012.24-4.91l169.76-63.17a3.81 3.81 0 014.91 2.24h0A3.81 3.81 0 012970.51 1241.42zM2979.6 1265.83L2809.84 1329a3.82 3.82 0 01-4.91-2.25h0a3.81 3.81 0 012.25-4.9l169.76-63.17a3.82 3.82 0 014.91 2.24h0A3.83 3.83 0 012979.6 1265.83zM2988.68 1290.23l-169.76 63.18a3.81 3.81 0 01-4.9-2.25h0a3.81 3.81 0 012.24-4.9L2986 1283.08a3.82 3.82 0 014.91 2.25h0A3.81 3.81 0 012988.68 1290.23zM2998.82 1317.46l-169.76 63.17a3.82 3.82 0 01-4.91-2.24h0a3.82 3.82 0 012.25-4.91l169.76-63.17a3.81 3.81 0 014.9 2.24h0A3.82 3.82 0 012998.82 1317.46zM2957.49 1360.63L2838.14 1405a3.81 3.81 0 01-4.9-2.24h0a3.81 3.81 0 012.24-4.91l119.35-44.41a3.81 3.81 0 014.91 2.24h0A3.82 3.82 0 012957.49 1360.63z" class="color1b89ac svgShape"/><polygon fill="#1b536a" points="3068.56 1386.15 2821.2 1478.2 2824.61 1487.35 2946.58 1436.75 3071.96 1395.3 3068.56 1386.15" class="color1b536a svgShape"/><path fill="#faba97" d="M3004.76,869.33s4.43,18.62,52.39,23.62,144.47-63.59,144.47-63.59c-22.14-44.85-36.65-127.77-35.33-169.5.56-16.31-9.64-11.93-8.48-22,1.2-10.71-101.63,79.89-101.63,79.89.48,1.6-13.68-8.85-13.28-7.29,5.44,20.55-3.67,59-4.62,74.86C3035.16,836.44,3004.76,869.33,3004.76,869.33Z" class="colorfaba97 svgShape"/><path fill="#cf2943" d="M2905.33,1472.56l343.35,80,77.48-1.87-32.56-105.28s-38.8-42.42-8.17-145.47a433.91,433.91,0,0,1,25.27-64.42l-53.59-190.33s-39,168.38-27.32,265.84-321.54,128.06-321.54,128.06Z" class="colorcf2943 svgShape"/><path fill="#ffffff" d="M3183.36 760.81L3056.18 891.49s44.37 33.88 88.73 33.88 69.64-131.76 69.64-131.76zM3038.21 784.86l16 108.09s-37.89 26.23-64.13 16.52 20.41-100.08 20.41-100.08z" class="colorfff svgShape"/><path fill="#faba97" d="M2927.66,1350.71,2890,1338s-19-29.31-34.33-44.7c-10.9-10.93-31.9-34.88-43.08-40.21s-2,32.86,7.23,40.85S2837,1325,2837,1327.62s-59.15-2.66-74.93-8.87-48.63-24.86-59.15-22.2S2697,1317,2720,1331.18c0,0-2.63,13.31,6.57,28.41,0,0,1.32,28.41,19.06,38.18,0,0,12.39,20.55,28.82,33s98,5.19,109.87,6.08,40.09,8,40.09,8S2935.54,1365.8,2927.66,1350.71Z" class="colorfaba97 svgShape"/><path fill="#f34f51" d="M2914.67,1344.42l4.8,92,1,18.77s297.31,66.08,384.78,68,139.88-50.5,143.77-91.31v0c-.09-1.53-17.64-321-27.19-448.85-3.71-49.62-16.24-81.44-27.63-100.73a0,0,0,0,0,0,0c-11-18.59-20.9-25.53-20.9-25.53-.87-.52-1.75-1-2.62-1.44a53,53,0,0,0-4.93-2.14c-11.35-4-21.87-2.22-31.65,3.63-1,.61-2,1.26-3.05,2-35.57,24.75-60.1,102.52-70.57,141.85a121.35,121.35,0,0,0-3.32,44.69L3285.43,1300l7,63.42.22,1.92C3192.78,1362.57,3005.49,1367.5,2914.67,1344.42Z" class="colorf34f51 svgShape"/><path fill="#e88b85" d="M2364.87 1016.12s-31.1 30.55-37.1 73.65C2327.77 1089.77 2363.24 1022.66 2364.87 1016.12zM2419.43 1037.39l-.55 2.19s-2.73 36 12.55 57.28C2431.43 1096.86 2427.61 1048.31 2419.43 1037.39z" class="colore88b85 svgShape"/><path fill="#415972" d="M3456.28,1932.94H2802.17c6.49-63.49,13.33-123.51,19.11-158.8,24-146.75,63.55-223,63.55-223l442.49-.46C3376.24,1593.78,3422.78,1771.49,3456.28,1932.94Z" class="color415972 svgShape"/><path fill="#2a4555" d="M3060.26,1932.94h-59c0-1,0-1.94,0-2.87-1.53-64.21-16.82-151.34-16.82-151.34C3029.87,1822.19,3051.1,1891.19,3060.26,1932.94Z" class="color2a4555 svgShape"/><path fill="#e88b85" d="M2723.49 1333.27s33.1 21.82 51.28 25.82C2774.77 1359.09 2733.31 1359.09 2723.49 1333.27zM2731.49 1363.82s6.18 9.1 22.55 15.64 29.82 5.82 29.82 5.82zM2749 1399.83a90.25 90.25 0 0022.19 9.82c12 3.27 20 2.55 20 2.55s-12 5.82-21.82 2.54S2749 1399.83 2749 1399.83z" class="colore88b85 svgShape"/><path fill="#cf2943" d="M3301.06,1375.1l73.1,41.46S3360,1359.82,3301.06,1375.1Z" class="colorcf2943 svgShape"/><path fill="#2a4555" d="M3312.7,1613.69l-408.81-20.37S3203.59,1651.52,3312.7,1613.69Z" class="color2a4555 svgShape"/><path fill="#ff6860" d="M2919.47,1436.42l1,18.77s297.31,66.08,384.78,68,139.84-23.7,143.77-91.31v0c-.09-1.53-17.64-321-27.19-448.85-3.71-49.62-16.24-81.44-27.63-100.73a0,0,0,0,0,0,0c-11-18.59-20.9-25.53-20.9-25.53-.87-.52-1.75-1-2.62-1.44a53,53,0,0,0-4.93-2.14c-11.35-4-21.87-2.22-31.65,3.63-1,.61-2,1.26-3.05,2,0,0,55.91-10.26,76.25,256s32,345.54-27.63,366.62C3339.4,1495.5,2983.85,1447.2,2919.47,1436.42Z" class="colorff6860 svgShape"/><ellipse cx="3226.71" cy="595.49" fill="#231f20" rx="69.32" ry="72.53" class="color231f20 svgShape"/><path fill="#231f20" d="M3273.67,543.19a172.41,172.41,0,0,1-6.87,48.91l0,.06c-.91,3.05-11.85,13.93-14.62,17.67C3119.64,715.39,2973,604.64,2973,604.64c-85.62-96.66-11.44-221.86,84.14-193,0,0,65.39-72.5,160,2.55C3255,444.28,3273.67,495,3273.67,543.19Z" class="color231f20 svgShape"/><path fill="#231f20" d="M3058.4,466.61c-69.41-31.76-126.78,19.83-104.65,99.66,24.3,87.66,109.08,61.17,109.08,61.17Z" class="color231f20 svgShape"/><path fill="#faba97" d="M3164.64,609.83,3167,763.16s-24.44,24.52-65.36,24.52c-49.29,0-63.33-2.68-63.33-2.68l5.08-109.2,1.73-52Z" class="colorfaba97 svgShape"/><polygon fill="#f5927e" points="3136.77 687.77 3038.35 785.41 3043.37 675.82 3136.77 687.77" class="colorf5927e svgShape"/><path fill="#faba97" d="M3167.19,458.78,3147.9,669.92a23.52,23.52,0,0,1-16.34,20.24l-90.32,28.37A23.58,23.58,0,0,1,3019,714l-43.69-37.19a23.44,23.44,0,0,1-8.2-20l.68-7.25,7.73-84.44,4.44-49A74.26,74.26,0,0,1,3060.66,449Z" class="colorfaba97 svgShape"/><path fill="#f08372" d="M3001.79,606.06a44.89,44.89,0,0,1-34,43.55l7.73-84.44A44.81,44.81,0,0,1,3001.79,606.06Z" class="colorf08372 svgShape"/><path fill="#de7360" d="M3030.92,628.16a3.08,3.08,0,0,1-1.25-.26l-30.88-13.65a3.09,3.09,0,0,1-1.66-3.85l26.71-75.31a3.08,3.08,0,1,1,5.81,2.07l-25.75,72.61,28.26,12.49a3.08,3.08,0,0,1-1.24,5.9Z" class="colorde7360 svgShape"/><path fill="#281c1c" d="M3160,582c-52.61-9.59-88.38-30.56-106.33-62.32-24.05-42.57-7.15-88.46-6.42-90.39l5.49,2.08-2.75-1,2.75,1c-.17.44-16.64,45.34,6.08,85.47C3075.84,547,3110.23,567,3161,576.23Z" class="color281c1c svgShape"/><path fill="#231f20" d="M3178.94,582.07s-132.45-28-137.22-133.35l9.38-27.33L3200,440.56Z" class="color231f20 svgShape"/><path fill="#faba97" d="M3127.3,613a43.09,43.09,0,1,0,46.84-39A43.1,43.1,0,0,0,3127.3,613Z" class="colorfaba97 svgShape"/><path fill="#de7360" d="M3167.89,649a2.88,2.88,0,0,1-2.27-1.11c-4-5.13-6.59-11.85-7.67-20-3.19-24,19.34-33.54,31.7-35.24a2.89,2.89,0,0,1,.78,5.73h0c-1.22.17-30,4.47-26.76,28.75.94,7.09,3.13,12.87,6.5,17.17a2.89,2.89,0,0,1-2.28,4.67Z" class="colorde7360 svgShape"/><path fill="#de7360" d="M3160.81,630.38a2.83,2.83,0,0,1-1.58-.47,2.89,2.89,0,0,1-.84-4c12.29-18.75,30.08-7.45,30.26-7.33a2.89,2.89,0,0,1-3.15,4.84c-1.35-.86-13.34-8-22.28,5.65A2.86,2.86,0,0,1,3160.81,630.38Z" class="colorde7360 svgShape"/><path fill="#281c1c" d="M2975.13 513.64c2.8 8.69 33.43 5.63 32.48-2.79C3006 496.86 2970.68 499.88 2975.13 513.64zM3110 526.71c-4.82 7.75-33.8-2.61-30.84-10.55C3084.06 503 3117.64 514.43 3110 526.71z" class="color281c1c svgShape"/><path fill="#f08372" d="M3144.25,616.94a44.95,44.95,0,1,1-44.95-45A44.94,44.94,0,0,1,3144.25,616.94Z" class="colorf08372 svgShape"/><path fill="#281c1c" d="M3078.84 578.24c-.74 8.07-5.15 14.26-9.85 13.84s-7.91-7.33-7.17-15.4 5.14-14.26 9.84-13.83S3079.58 570.17 3078.84 578.24zM2999.7 571c-.74 8.07-5.15 14.26-9.85 13.83s-7.91-7.32-7.18-15.39 5.15-14.26 9.85-13.83S3000.43 562.94 2999.7 571z" class="color281c1c svgShape"/><path fill="#383939" d="M3059.75,667.85a26.09,26.09,0,0,1-3.32,3.24c-8,6.56-20.1,9.3-30.83,6.56a33.28,33.28,0,0,1-12.7-6.36c-5.77-4.78-9.72-11.27-10.38-18.07-.39-3.91.86-8.63,5.11-9.91a10,10,0,0,1,3-.26,36.31,36.31,0,0,1,5.56,1.35,80.13,80.13,0,0,0,30.69,3.16,29.17,29.17,0,0,1,10.08.34c2.93.73,5.16,2.15,6.25,4.68C3065.51,657.71,3063.36,663.48,3059.75,667.85Z" class="color383939 svgShape"/><path fill="#ffffff" d="M3057,647.9c-.38,2.58-1.22,5.11-3.11,6.74-2.07,1.84-4.91,2.36-7.64,2.58a67.44,67.44,0,0,1-29.34-3.54c-2.22-.8-4.57-1.85-5.8-3.86s-1-4.44-.44-6.77a36.31,36.31,0,0,1,5.56,1.35,80.13,80.13,0,0,0,30.69,3.16A29.17,29.17,0,0,1,3057,647.9Z" class="colorfff svgShape"/><path fill="#f08372" d="M3056.43,671.09c-8,6.56-20.1,9.3-30.83,6.56a33.28,33.28,0,0,1-12.7-6.36c4.32-4.52,11.14-6.65,17.6-7C3039.62,663.62,3049.1,665.82,3056.43,671.09Z" class="colorf08372 svgShape"/><path fill="#414042" d="M3078.16,429.17s26.51,100.18,107.83,98.3c0,0-15.17-37.67-36.94-58.64,0,0,58.84,24.61,77.66,81.54,0,0-2.14-87.38-108-120.06l11.54,47.38S3097.45,461.69,3078.16,429.17Z" class="color414042 svgShape"/><rect width="426.64" height="303.77" x="1227.86" y="768.5" fill="#ff5e8b" rx="49.32" class="colorff5e8b svgShape"/><path fill="#ff5e8b" d="M1495.29,1056.67l-45.06,89.71a11.79,11.79,0,0,1-21.2-.26l-42-88.93Z" class="colorff5e8b svgShape"/><path fill="#ffffff" d="M1380.61,937.09a50.35,50.35,0,0,1-24.17-5.73,41.64,41.64,0,0,1-16.92-16.92q-6.24-11.19-6.23-27t6.23-26.84a42.76,42.76,0,0,1,16.92-16.92,52.8,52.8,0,0,1,48.35,0,42.76,42.76,0,0,1,16.92,16.92q6.22,11.07,6.23,26.84t-6.23,27a41.64,41.64,0,0,1-16.92,16.92A50.39,50.39,0,0,1,1380.61,937.09Zm-17,81.42L1485.19,840.4h43l-121.62,178.11Zm17-108.9q4.34,0,7.76-4.71t3.44-17.43q0-12.72-3.44-17.43c-2.29-3.13-4.87-4.71-7.76-4.71-2.71,0-5.26,1.58-7.63,4.71s-3.56,9-3.56,17.43,1.18,14.29,3.56,17.43S1377.9,909.61,1380.61,909.61Zm130.53,111.45a50.35,50.35,0,0,1-24.17-5.73,41.7,41.7,0,0,1-16.92-16.92q-6.24-11.19-6.23-27t6.23-26.85A42.89,42.89,0,0,1,1487,927.67a52.88,52.88,0,0,1,48.35,0,42.89,42.89,0,0,1,16.92,16.92q6.23,11.07,6.23,26.85t-6.23,27a41.7,41.7,0,0,1-16.92,16.92A50.39,50.39,0,0,1,1511.14,1021.06Zm0-27.48q4.33,0,7.76-4.71t3.44-17.43q0-12.72-3.44-17.43t-7.76-4.71q-4.07,0-7.63,4.71T1500,971.44q0,12.72,3.56,17.43T1511.14,993.58Z" class="colorfff svgShape"/><path fill="#af6fb8" d="M1258.45,1814.46l-31.16-76.75a68,68,0,0,0-47-40.5l-300.88-72.92a68,68,0,0,0-82.06,50.07l-34.14,140.91a67.94,67.94,0,0,0,50,82.07l298.87,72.42a68,68,0,0,0,62.71-16.68l67.32-63.67A68,68,0,0,0,1258.45,1814.46Zm-97,43.93a27.64,27.64,0,1,1,30.68-24.21A27.63,27.63,0,0,1,1161.47,1858.39Z" class="coloraf6fb8 svgShape"/><path d="M1302.62,1863.56c-23.21,0-54-7-91.74-20.77-31.8-11.64-57.05-24.1-57.3-24.23a4.58,4.58,0,0,1,2.21-8.68l30.07,1.15a4.58,4.58,0,0,1-.35,9.16l-6.94-.27c32,13.93,93.56,37.73,132.55,34.1,11.39-1.06,15-2.87,16.05-3.61-1-1.63-6.48-7.64-35-19.05-17.53-7-34.88-12.48-35.06-12.53a4.58,4.58,0,0,1,2.75-8.74c.19.06,19.11,6,37.62,13.53,35.41,14.36,39.7,21.9,39.06,27.91-.88,8.31-12.9,10.53-24.53,11.62Q1307.53,1863.56,1302.62,1863.56Zm24.78-12.7h0Z" fill="#000000" class="color000 svgShape"/><path fill="#ffffff" d="M841.5 1798.77a71.62 71.62 0 01-17.92-6.19 48.66 48.66 0 01-13-9l10.56-14.76a51.51 51.51 0 0010.86 8 45.32 45.32 0 0013.1 5 28.15 28.15 0 007.51.76 8.37 8.37 0 004.44-1.39 5.12 5.12 0 002-3.17 4.68 4.68 0 00-1.6-4.54 25.13 25.13 0 00-5.83-3.86c-2.47-1.24-5.18-2.49-8.1-3.75a86.71 86.71 0 01-8.83-4.43 36.55 36.55 0 01-7.78-5.88 20 20 0 01-4.87-7.93 20.71 20.71 0 01-.25-10.78 22.58 22.58 0 016.35-11.72q4.94-4.86 13.28-6.7t19.73.51a67.67 67.67 0 0114.63 4.83 45.13 45.13 0 0111.92 7.83l-10 14.77a48.44 48.44 0 00-10-6.8 41.47 41.47 0 00-10.2-3.62 22.5 22.5 0 00-7.51-.52 8.89 8.89 0 00-4.51 1.72 5.36 5.36 0 00-1.9 3.07 4.71 4.71 0 001.57 4.65 22.44 22.44 0 005.8 3.74q3.68 1.74 8.17 3.71a95.8 95.8 0 018.83 4.43 37.29 37.29 0 017.74 5.76 20.06 20.06 0 015 7.84 19.77 19.77 0 01.33 10.62 22.34 22.34 0 01-6.39 11.65 26.85 26.85 0 01-13.34 6.75Q853 1801.16 841.5 1798.77zM876.87 1804.49l50.23-70.32 21.56 4.47 18.23 84.52-22.78-4.72-12.93-72.24 8.62 1.79-40.59 61.14zm21.83-11.27l9-14.87 37.82 7.85 2.31 17.2zM973.19 1824.47l16.06-77.41 21.89 4.54-12.45 60.05 36.83 7.64-3.6 17.36zM1065.75 1825.9l40.47 8.39-3.53 17-62-12.86 16-77.41 60.61 12.56-3.54 17-39-8.09zm4.75-30.73l36 7.45-3.38 16.26-35.94-7.46z" class="colorfff svgShape"/><polygon fill="#ff970b" points="3464.88 2538.73 3378.79 2587.57 3301.02 2494.95 3276.22 2465.34 3470.86 1964.97 3640.29 2034.34 3594.53 2151.97 3542.49 2183.15 3563.27 2244.46 3548.24 2283.11 3491.96 2321.24 3512.31 2375.45 3494.94 2420.12 3447.53 2460.04 3464.88 2538.73" class="colorff970b svgShape"/><rect width="20.99" height="547.42" x="3455.78" y="2012.62" fill="#fec313" transform="rotate(21.26 3465.778 2285.834)" class="colorfec313 svgShape"/><polygon fill="#fec313" points="3496.93 1991.33 3301.02 2494.95 3276.22 2465.34 3465.38 1979.06 3496.93 1991.33" class="colorfec313 svgShape"/><path fill="#fec313" d="M3949.9,1632.9a182.42,182.42,0,0,1-27.83,37c-44.55,45.74-110.83,63.62-170.55,40.39a144.23,144.23,0,0,1-18.15-8.58c-18.85,15-45.58,19.55-70.38,9.91-36.6-14.24-55.22-54-41.63-89a65.29,65.29,0,0,1,33.91-35.88,68.33,68.33,0,0,1,22.06-6.11,71.67,71.67,0,0,1,34.83,4.54c36.6,14.24,55.21,54,41.63,89a53.33,53.33,0,0,1-4.54,9.18c3.71,1.86,7.47,3.6,11.44,5.15,54.3,21.12,115,2.72,153.38-41.53a153.57,153.57,0,0,0,21-31.07,69.26,69.26,0,0,0-19.83-11.74l-359.5-139.84a71.89,71.89,0,0,0-93.15,41l-134,344.45a71.89,71.89,0,0,0,41,93.15L3729,2082.73a71.88,71.88,0,0,0,93.14-41l134-344.45A71.33,71.33,0,0,0,3949.9,1632.9Z" class="colorfec313 svgShape"/><path fill="#ff970b" d="M3922.07,1669.89c-44.55,45.74-110.83,63.62-170.55,40.39a144.23,144.23,0,0,1-18.15-8.58c-18.85,15-45.58,19.55-70.38,9.91-36.6-14.24-55.22-54-41.63-89a65.29,65.29,0,0,1,33.91-35.88,68.33,68.33,0,0,1,22.06-6.11,71.67,71.67,0,0,1,34.83,4.54c36.6,14.24,55.21,54,41.63,89a53.33,53.33,0,0,1-4.54,9.18c3.71,1.86,7.47,3.6,11.44,5.15,54.3,21.12,115,2.72,153.38-41.53a62.07,62.07,0,0,0-31.58-27.12L3568.25,1497.6a62.88,62.88,0,0,0-81.39,35.71l-117.14,301.11a62.91,62.91,0,0,0,35.83,81.44l314.23,122.24a62.9,62.9,0,0,0,81.44-35.83l117.14-301.11A62.7,62.7,0,0,0,3922.07,1669.89Z" class="colorff970b svgShape"/><path fill="#7b2638" d="M3874.83,1393.28c-81.5-31.71-175.31,13.45-209.35,101-1.46,3.73-2.79,7.51-3.95,11.21a163,163,0,0,0-6.11,26,170.48,170.48,0,0,0-.15,55.25c7.52,48.39,35.42,91.41,78.1,114.94a61.13,61.13,0,0,0,15.88-18.36c-39.63-20-65.53-58.89-71.92-102.69a153.21,153.21,0,0,1,4.91-67.12c1.13-4,2.51-7.89,4-11.75,29.41-75.6,110.44-114.64,181-87.2s103.78,110.93,74.37,186.54c-2,5.06-4.18,10-6.58,14.77a65.81,65.81,0,0,1,14.87,17,191.68,191.68,0,0,0,11.15-23.67C3995.09,1521.71,3956.46,1425,3874.83,1393.28Z" class="color7b2638 svgShape"/><path fill="#fec313" d="M3949.9,1632.9a182.42,182.42,0,0,1-27.83,37,61.85,61.85,0,0,0-8-22.93,153.57,153.57,0,0,0,21-31.07A65.81,65.81,0,0,1,3949.9,1632.9Z" class="colorfec313 svgShape"/><path fill="#ff970b" d="M3922.07,1669.89c-44.55,45.74-110.83,63.62-170.55,40.39a144.23,144.23,0,0,1-18.15-8.58,61.13,61.13,0,0,0,15.88-18.36c3.71,1.86,7.47,3.6,11.44,5.15,54.3,21.12,115,2.72,153.38-41.53A61.85,61.85,0,0,1,3922.07,1669.89Z" class="colorff970b svgShape"/><path fill="#ffcc4d" d="M1555.26,2417.24v.06a4.27,4.27,0,0,1-.17,1.16c-.14.44-.22.94-.35,1.38a6.82,6.82,0,0,1-.28,1,7.14,7.14,0,0,1-.44,1,.68.68,0,0,1-.13.32,2.25,2.25,0,0,1-.38.88c0,.11-.06.16-.12.27a.37.37,0,0,0-.12.22,18.75,18.75,0,0,1-1.69,2.48,12,12,0,0,1-1.61,1.92c-.17.22-.41.43-.59.64a5,5,0,0,1-.94,1,25.68,25.68,0,0,1-2.56,2.21,15,15,0,0,1-2.32,1.72l-.75.52a15.28,15.28,0,0,1-2.26,1.5,4.74,4.74,0,0,1-.91.51c-.69.41-1.38.77-2.07,1.18a57.77,57.77,0,0,1-5.33,2.74c-1,.5-2.17,1-3.31,1.45-.91.4-1.88.79-2.85,1.19a8.12,8.12,0,0,1-1.25.49c-2.1.79-4.32,1.57-6.59,2.34-.28.1-.62.19-.91.29-1.58.53-3.23,1.06-4.93,1.59-1.19.33-2.38.71-3.62,1l-1.69.42c-1.25.38-2.5.7-3.79,1-.74.18-1.47.37-2.26.55s-1.7.42-2.54.6a11.17,11.17,0,0,0-1.13.22c-.68.19-1.35.32-2.09.5-2,.41-4,.86-6.09,1.25-.5.09-1,.23-1.52.32-2.53.48-5.07,1-7.71,1.39a10.51,10.51,0,0,1-1.35.21l-3.88.64c-.11,0-.17,0-.23,0-1.23.22-2.47.38-3.76.59-1.69.25-3.43.49-5.22.68-.79.13-1.63.25-2.42.32-1.68.19-3.31.45-5,.58l-1,.12H1457l-.06.06c-2.92.35-5.89.64-9,.93l-1.18.11c-2.35.21-4.7.43-7.11.58-1.8.19-3.59.32-5.43.39-1.62.14-3.3.23-5,.31v.05a9.17,9.17,0,0,1-1.4,0c-2.85.19-5.82.37-8.83.44l-3.47.16c-2.4.1-4.8.2-7.2.25-4.08.12-8.15.14-12.23.21-2.73,0-5.41,0-8.14,0-4.58.05-9.15,0-13.66-.14s-8.85-.23-13.25-.45h0c-2.12,0-4.23-.16-6.34-.27-2.51-.12-5-.25-7.4-.43l-.45,0c-4.61-.29-9.11-.63-13.61-1-.83,0-1.72-.14-2.55-.24-1.62-.08-3.17-.27-4.78-.41-2.05-.22-4.1-.38-6.16-.59-3.44-.35-6.82-.69-10.15-1.14-1.27-.12-2.54-.29-3.77-.41-.44-.08-.88-.1-1.32-.18-1.83-.26-3.66-.52-5.49-.73-2.27-.28-4.54-.62-6.75-1-2.44-.35-4.88-.69-7.25-1.09-2.77-.42-5.48-.9-8.13-1.37l-3.93-.7-3.86-.7c-1.44-.3-2.76-.53-4.15-.77v-.05l-1-.22-4.25-.89-4.13-.88c-1.44-.3-2.82-.59-4.19-.94-.78-.15-1.55-.3-2.26-.51-1.71-.42-3.36-.84-5-1.26a3.49,3.49,0,0,1-.83-.21c-.83-.15-1.6-.35-2.43-.56l-3.19-.84c-2.2-.61-4.34-1.22-6.48-1.84-.94-.27-1.87-.59-2.8-.86l-4-1.21a.34.34,0,0,1-.22-.07c-.88-.26-1.81-.54-2.69-.86-1.26-.4-2.46-.85-3.67-1.25-.88-.26-1.7-.58-2.57-.91-1.48-.52-3-1-4.38-1.62-.06.06-.06.06-.11,0a5.15,5.15,0,0,1-.82-.32c-.5-.2-1-.39-1.48-.58-2.24-.9-4.43-1.79-6.5-2.73s-4-1.82-5.93-2.76c-.77-.37-1.58-.75-2.29-1.18-.87-.43-1.74-.86-2.55-1.35-.49-.25-.92-.55-1.4-.85-1.14-.62-2.28-1.29-3.36-2-.87-.55-1.73-1.09-2.54-1.64a14.5,14.5,0,0,1-1.77-1.31l-1.45-1.08c-.86-.66-1.66-1.37-2.46-2a8.64,8.64,0,0,1-1.13-1c-.53-.53-1.06-1-1.54-1.47a18.19,18.19,0,0,1-1.43-1.53,21.52,21.52,0,0,1-1.41-1.74c-.63-.87-1.2-1.68-1.71-2.54a16.13,16.13,0,0,1-2.09-5,12.77,12.77,0,0,1-.43-2.48,9.35,9.35,0,0,1-.08-1.73v-.17c.32-7.45,6.54-14.5,17.67-20.62,7.35-4,16.79-7.73,28.11-10.94,4.36-1.23,8.93-2.33,13.84-3.42q12.78-2.87,27.8-4.94,6.66-.92,13.8-1.63c8.75-1,18-1.71,27.67-2.21,4.47-.28,9.06-.49,13.69-.59,1.46-.09,2.91-.13,4.42-.16,7.7-.22,15.46-.27,23.15-.21,2.62,0,5.3.05,7.91.12l5.74.13c9.25.19,18.43.66,27.48,1.29,4.62.3,9.12.64,13.62,1,9.33.81,18.48,1.84,27.4,3,4.6.57,9.08,1.19,13.56,1.87,9.47,1.43,18.59,3.07,27.3,4.91,4.64.9,9.16,1.91,13.57,3,9.75,2.28,18.83,4.81,27.11,7.57q7.15,2.3,13.47,4.87c11,4.36,20.11,9.17,26.82,14.26a44.07,44.07,0,0,1,7.09,6.44C1554,2407.81,1555.77,2412.64,1555.26,2417.24Z" class="colorffcc4d svgShape"/><path fill="#f4ad2e" d="M1514,2415.29a6.2,6.2,0,0,1-.14.91c-.1.35-.17.74-.27,1.09a2.7,2.7,0,0,1-.22.77,5.35,5.35,0,0,1-.35.78c0,.09,0,.17-.1.25a1.65,1.65,0,0,1-.3.69,1.75,1.75,0,0,0-.19.39,14.31,14.31,0,0,1-1.33,1.95,8.93,8.93,0,0,1-1.26,1.51,2.17,2.17,0,0,1-.47.5,3.54,3.54,0,0,1-.74.76,19.87,19.87,0,0,1-2,1.74,11.46,11.46,0,0,1-1.82,1.35,1.8,1.8,0,0,1-.59.41,12.67,12.67,0,0,1-1.77,1.18,4.57,4.57,0,0,1-.72.4c-.55.33-1.09.61-1.63.93a44.4,44.4,0,0,1-4.19,2.15c-.81.4-1.71.79-2.61,1.14-.71.32-1.48.63-2.24.94a6.07,6.07,0,0,1-1,.39q-4.5,1.74-9.78,3.32c-.94.26-1.87.56-2.85.82-1.43.41-2.85.77-4.32,1.14-.57.14-1.15.29-1.77.43s-1.34.33-2,.47c-.85.22-1.69.4-2.53.57-3.82.86-7.85,1.62-12,2.33-1.42.27-2.84.47-4.3.7-1,.17-1.94.29-3,.46-1.33.2-2.7.39-4.11.54l-1.32.19c-1.5.19-3,.37-4.55.51a2.41,2.41,0,0,1-.84.09l0,0c-5.69.63-11.65,1.2-17.85,1.58-1.28.11-2.6.18-3.92.24v.05a9.9,9.9,0,0,1-1.1,0c-3.17.19-6.38.37-9.68.47-1.89.08-3.78.15-5.67.19-3.47.09-6.94.13-10.4.17-1.89,0-3.74,0-5.62,0-3.6,0-7.2,0-10.74-.11s-7-.19-10.47-.36c-1.67-.05-3.33-.13-5-.22-2-.1-3.9-.2-5.82-.34l-.35,0c-3.63-.22-7.17-.49-10.71-.76-1.92-.14-3.85-.33-5.77-.52-1.61-.17-3.23-.29-4.84-.46-1.36-.16-2.71-.27-4-.43-2.31-.25-4.62-.54-6.93-.79-.44-.07-.87-.13-1.31-.16-1.35-.2-2.7-.4-4-.55-1.79-.23-3.58-.49-5.32-.76-1.91-.27-3.83-.55-5.7-.86-2.18-.33-4.31-.7-6.4-1.07l-6.13-1.11c-1.13-.23-2.17-.42-3.26-.6v-.05c-2.52-.48-5-1-7.38-1.56-1.13-.23-2.22-.46-3.3-.74-.61-.12-1.22-.23-1.78-.4-2.21-.5-4.38-1.05-6.5-1.6-2.59-.7-5.15-1.36-7.61-2.1-1.82-.53-3.59-1.06-5.32-1.63a.24.24,0,0,1-.17-.06c-.69-.21-1.42-.42-2.11-.67-2.94-.94-5.7-1.92-8.36-3,0,0,0,0-.09,0a2.68,2.68,0,0,1-.73-.3c-1.25-.46-2.5-1-3.7-1.46-2.54-1-4.94-2.14-7.16-3.26-.6-.3-1.24-.59-1.8-.93s-1.36-.68-2-1.07c-1.33-.72-2.56-1.45-3.75-2.21-.68-.43-1.36-.86-2-1.28a12.9,12.9,0,0,1-1.39-1l-1.14-.85c-.68-.52-1.31-1.08-1.94-1.59-.3-.24-.59-.51-.88-.79s-.84-.79-1.22-1.16-.79-.79-1.12-1.2a16.29,16.29,0,0,1-1.11-1.37c-.49-.69-1-1.32-1.35-2a12.68,12.68,0,0,1-1.64-3.9,9.61,9.61,0,0,1-.34-2,7.09,7.09,0,0,1-.06-1.36c.21-5.92,5.1-11.5,13.91-16.36a108.12,108.12,0,0,1,22.11-8.61c3.43-1,7-1.83,10.89-2.69,6.7-1.5,14-2.79,21.87-3.88q5.23-.72,10.86-1.29c6.88-.75,14.16-1.34,21.77-1.74,3.52-.21,7.12-.38,10.77-.46,1.14-.07,2.29-.1,3.47-.13,6.07-.17,12.17-.21,18.22-.16,3.6,0,7.19.1,10.74.2,7.27.15,14.49.52,21.62,1,3.63.23,7.17.5,10.71.77,7.34.64,14.54,1.45,21.56,2.33,3.62.45,7.14.94,10.67,1.47q11.17,1.7,21.48,3.86c3.65.71,7.2,1.51,10.67,2.35,7.68,1.79,14.81,3.78,21.33,6,3.75,1.2,7.29,2.48,10.59,3.83,8.69,3.43,15.83,7.21,21.11,11.21a35.19,35.19,0,0,1,5.57,5.07C1513,2407.82,1514.42,2411.67,1514,2415.29Z" class="colorf4ad2e svgShape"/><path fill="#f4ad2e" d="M1552,2491.41l0,.61a16.7,16.7,0,0,1-.53,2.77c-.07.1,0,.27-.08.38a1.42,1.42,0,0,1-.07.22,18.09,18.09,0,0,1-1.2,2.78.2.2,0,0,0-.06.17,1.63,1.63,0,0,0-.3.37,25.46,25.46,0,0,1-1.45,2.22,1.61,1.61,0,0,0-.25.37c-.11.11-.17.22-.29.27a22.22,22.22,0,0,1-2.3,2.56v0a2.17,2.17,0,0,1-.29.21,23.9,23.9,0,0,1-2.57,2.27l-.35.31-.51.31a30.38,30.38,0,0,1-3,2.14c-.12.1-.18.21-.35.26,0,.05-.06.05-.12.05-.46.31-1,.62-1.49.92-.81.52-1.61,1-2.47,1.44a1.91,1.91,0,0,1-.46.25,3.73,3.73,0,0,1-.63.36c-1.38.71-2.75,1.42-4.24,2.13-.17,0-.29.15-.46.2a.23.23,0,0,1-.17,0c-1.77.8-3.59,1.6-5.53,2.39a2.69,2.69,0,0,0-.62.25,4.34,4.34,0,0,0-.63.24c-2.1.79-4.26,1.57-6.59,2.34-.11,0-.17.11-.28.1a4.7,4.7,0,0,1-.63.19c-1.75.58-3.57,1.16-5.44,1.73l-3,.85c-.12,0-.17,0-.23.1l-1.59.42c-1.18.33-2.43.65-3.73,1l-2.25.55-3,.68-.57.14a6.12,6.12,0,0,1-1,.23l-1.13.28c-2,.4-4,.85-6,1.25-.56.08-1.07.22-1.58.31-2.53.48-5.07,1-7.71,1.39l-.62.13a4.15,4.15,0,0,0-.73.08c-2.76.47-5.51.89-8.38,1.3-1.57.2-3.14.45-4.71.65-.51.09-1,.12-1.52.2-2.47.32-5,.64-7.58.9l-6.44.67-.84.12c-.17,0-.4,0-.62,0-4,.41-8.18.75-12.38,1-.61,0-1.29.1-1.9.13-1.79.13-3.64.26-5.48.33-2.41.15-4.93.3-7.39.4a5.6,5.6,0,0,1-1,.06,10,10,0,0,1-1.34,0c-1.34.05-2.63.09-4,.19-2.18.06-4.42.17-6.71.22-3.52.1-7.09.14-10.6.18-.22,0-.5,0-.73,0-.56,0-1.17,0-1.73,0-2.62,0-5.18,0-7.8,0-.84,0-1.73,0-2.57,0-.61,0-1.23,0-1.84,0a15.51,15.51,0,0,0-1.67,0c-2.56-.08-5.07-.09-7.58-.16l-.22,0c-.83,0-1.62,0-2.45-.07a2.55,2.55,0,0,1-.73,0c-3.11-.1-6.23-.2-9.29-.36-.34,0-.67,0-1,0h-.11l-10.57-.54c-.83,0-1.67-.14-2.5-.18l-.67,0c-2.16-.16-4.33-.27-6.5-.44l-.94-.05c-.89-.1-1.84-.15-2.78-.25-1.11-.12-2.28-.18-3.39-.29s-1.94-.15-2.94-.2c-.45,0-1-.11-1.45-.13-.83-.1-1.66-.14-2.44-.24-2-.22-4.11-.38-6.16-.59-.66-.09-1.33-.13-2-.22s-1.28-.12-1.89-.21c-2.11-.21-4.22-.43-6.27-.71l-2.38-.29c-.44,0-.83-.09-1.28-.12-.22,0-.38-.07-.6-.08l-6.26-.83-2.39-.28a1.51,1.51,0,0,0-.55-.09c-1.49-.24-2.94-.43-4.37-.67l-5.26-.77a.31.31,0,0,1-.22-.07,9.3,9.3,0,0,1-1.27-.17c-2.77-.48-5.48-.9-8.13-1.37-.33-.07-.72-.09-1-.16-.67-.15-1.28-.23-1.94-.38-2.32-.4-4.64-.85-7-1.3-.6-.15-1.21-.23-1.77-.32a4.54,4.54,0,0,0-.71-.15,1.85,1.85,0,0,0-.5-.13l-9.6-2s0-.06-.11-.06h-.05c-1.11-.23-2.21-.51-3.31-.73-2.32-.56-4.57-1.13-6.78-1.68a11.44,11.44,0,0,1-1.26-.29c-.34-.08-.66-.2-1-.28-3.64-.91-7.21-1.87-10.67-2.88a1.65,1.65,0,0,0-.56-.14c-.76-.27-1.48-.47-2.24-.73l-4-1.21-.71-.2c-.72-.21-1.43-.47-2.2-.73-1.26-.4-2.46-.85-3.67-1.25-.38-.13-.71-.2-1-.33-.55-.19-1-.38-1.53-.58-1.48-.52-3-1-4.38-1.62l-.61-.19c-.6-.26-1.26-.46-1.8-.71-1.42-.57-2.84-1.15-4.2-1.78-.72-.26-1.37-.57-2-.83-1.8-.76-3.48-1.57-5.12-2.38a3.47,3.47,0,0,1-.65-.31c-1.85-.87-3.59-1.8-5.27-2.72-.49-.25-.92-.55-1.41-.85-1.13-.62-2.27-1.29-3.35-2-.54-.36-1.08-.72-1.56-1.08s-1-.61-1.46-1l-1.29-.9-1.45-1.08c-.86-.66-1.66-1.37-2.47-2-.37-.36-.74-.66-1.12-1-1.06-1-2.07-2-3-3-4-4.66-5.88-9.22-5.71-13.62l3.32-74.78a9.35,9.35,0,0,0,.08,1.73,12.77,12.77,0,0,0,.43,2.48,19.22,19.22,0,0,0,2.09,5c.51.86,1.08,1.67,1.71,2.54a21.52,21.52,0,0,0,1.41,1.74,18.19,18.19,0,0,0,1.43,1.53c.48.47,1,.94,1.54,1.47a8.64,8.64,0,0,0,1.13,1c.8.65,1.6,1.36,2.46,2l1.45,1.08c.59.42,1.18.84,1.78,1.2a9.9,9.9,0,0,0,1,.67c.48.35,1,.72,1.56,1.08,1.08.67,2.22,1.34,3.36,2,.48.3.91.6,1.4.85.81.49,1.68.92,2.55,1.35.71.43,1.52.81,2.29,1.18l2.45,1.13c1.08.56,2.23,1.12,3.48,1.63,2.07.94,4.26,1.83,6.5,2.73.44.19,1,.38,1.48.58.27.07.54.19.82.26v.06c0,.06,0,.06.11,0,1.42.58,2.9,1.1,4.38,1.62.87.33,1.69.65,2.57.91,1.21.4,2.41.85,3.67,1.25.88.32,1.81.6,2.69.86a.34.34,0,0,0,.22.07l4,1.21c.93.27,1.86.59,2.8.86,2.14.62,4.28,1.23,6.48,1.84l3.19.84a14.77,14.77,0,0,1,1.6.36l.83.2a3.49,3.49,0,0,0,.83.21c1.65.42,3.3.84,5,1.26.71.21,1.48.36,2.26.51,1.37.35,2.75.64,4.19.94l4.13.88,4.25.89,1,.22c.66.09,1.32.23,1.93.37l2.21.45,3.86.7,3.93.7c2.65.47,5.36.95,8.13,1.37,2.37.4,4.81.74,7.25,1.09,2.21.34,4.48.68,6.75,1,1.83.21,3.66.47,5.49.73.44.08.88.1,1.32.18,1.23.12,2.5.29,3.77.41,3.33.45,6.71.79,10.15,1.14,2.06.21,4.11.37,6.16.59,1.61.14,3.16.33,4.78.41.83.1,1.72.2,2.55.24,4.5.35,9,.69,13.61,1l.45,0c.89,0,1.78.15,2.67.19l10.12.52c.33,0,.61,0,1,0h0c4.4.22,8.8.33,13.25.45s9.08.19,13.66.14c2.73,0,5.41.05,8.14,0l12.23-.21c2.4-.05,4.8-.15,7.2-.25l3.47-.16c3-.07,6-.25,8.83-.44l1.4-.09c1.68-.08,3.36-.17,5-.31,1.84-.07,3.63-.2,5.43-.39,2.41-.15,4.76-.37,7.11-.58l1.18-.11,2-.23c2.35-.21,4.65-.49,7-.7v-.06h.17l1-.12c1.68-.14,3.37-.33,5-.58.79-.07,1.63-.19,2.42-.32l5.22-.74c1.29-.15,2.53-.37,3.76-.53.06-.05.12-.05.23,0l3.88-.64a10.51,10.51,0,0,0,1.35-.21c2.64-.42,5.18-.91,7.71-1.39.51-.09,1-.23,1.52-.32,2.09-.39,4.12-.84,6.09-1.25.74-.18,1.41-.31,2.09-.5a11.17,11.17,0,0,1,1.13-.22v-.06l2.54-.54c.79-.18,1.52-.37,2.26-.55,1.29-.33,2.54-.65,3.79-1l1.69-.42c1.24-.33,2.43-.71,3.62-1,1.7-.53,3.35-1.06,4.93-1.59.29-.1.63-.19.91-.29,2.27-.77,4.49-1.55,6.59-2.34a8.12,8.12,0,0,0,1.25-.49c1-.4,1.94-.79,2.85-1.19s1.83-.8,2.68-1.21a2.71,2.71,0,0,0,.63-.24,57.77,57.77,0,0,0,5.33-2.74c.69-.41,1.38-.77,2.07-1.18a8.54,8.54,0,0,0,.92-.57c.34-.2.69-.41,1-.61a5.2,5.2,0,0,0,.46-.31,4.86,4.86,0,0,0,.81-.52l.75-.52c.52-.36,1-.73,1.45-1.1l.87-.62a25.68,25.68,0,0,0,2.56-2.21,1.47,1.47,0,0,0,.3-.32,7.72,7.72,0,0,0,.64-.64c.18-.21.42-.42.59-.64a9.43,9.43,0,0,0,1.07-1.28l.54-.64a25.46,25.46,0,0,0,1.45-2.22,1,1,0,0,1,.24-.26.37.37,0,0,1,.12-.22c.06-.11.12-.16.12-.27a3.39,3.39,0,0,0,.38-.88.68.68,0,0,0,.13-.32,7.14,7.14,0,0,0,.44-1,6.82,6.82,0,0,0,.28-1c.13-.44.21-.94.35-1.38a4.27,4.27,0,0,0,.17-1.16Z" class="colorf4ad2e svgShape"/><path fill="#f4ad2e" d="M1210.78 2434.59l-3.83 74.82c-.6-.26-1.26-.46-1.8-.71-1.42-.57-2.84-1.15-4.2-1.78-.72-.26-1.37-.57-2-.83-1.8-.76-3.48-1.57-5.12-2.38a3.47 3.47 0 01-.65-.31c-1.85-.87-3.59-1.8-5.27-2.72-.49-.25-.92-.55-1.41-.85-1.13-.62-2.27-1.29-3.35-2-.54-.36-1.08-.72-1.56-1.08s-1-.61-1.46-1l3.82-74.65a9.9 9.9 0 001 .67c.48.35 1 .72 1.56 1.08 1.08.67 2.22 1.34 3.36 2 .48.3.91.6 1.4.85.81.49 1.68.92 2.55 1.35 1.47.81 3.1 1.56 4.74 2.31 1.08.56 2.23 1.12 3.48 1.63 2.07.94 4.26 1.83 6.5 2.73C1209.19 2434.06 1210 2434.33 1210.78 2434.59zM1251.38 2446.65l-3.83 74.87c-2.32-.56-4.57-1.13-6.78-1.68a11.44 11.44 0 01-1.26-.29c-.34-.08-.66-.2-1-.28-3.64-.91-7.21-1.87-10.67-2.88a1.65 1.65 0 00-.56-.14c-.76-.27-1.48-.47-2.24-.73l-4-1.21-.71-.2 3.82-74.82a.34.34 0 00.22.07l4 1.21c.93.27 1.86.59 2.8.86 2.14.62 4.28 1.23 6.48 1.84 1.54.42 3.2.78 4.79 1.2a16.08 16.08 0 001.66.41c1.65.42 3.3.84 5 1.26C1249.83 2446.35 1250.6 2446.5 1251.38 2446.65zM1292.26 2454.26l-3.83 74.87-5.26-.77a.31.31 0 01-.22-.07 9.3 9.3 0 01-1.27-.17c-2.77-.48-5.48-.9-8.13-1.37-.33-.07-.72-.09-1-.16-.67-.15-1.28-.23-1.94-.38-2.32-.4-4.64-.85-7-1.3-.6-.15-1.21-.23-1.77-.32a4.54 4.54 0 00-.71-.15l3.83-74.86c.66.09 1.32.23 1.93.37l6.07 1.15 3.93.7c2.65.47 5.36.95 8.13 1.37C1287.38 2453.57 1289.82 2453.91 1292.26 2454.26zM1333.23 2458.92l-3.83 74.87c-1-.05-1.94-.15-2.94-.2-.45 0-1-.11-1.45-.13-.83-.1-1.66-.14-2.44-.24-2-.22-4.11-.38-6.16-.59-.66-.09-1.33-.13-2-.22s-1.28-.12-1.89-.21c-2.11-.21-4.22-.43-6.27-.71l-2.38-.29c-.44 0-.83-.09-1.28-.12-.22 0-.38-.07-.6-.08l3.82-74.87c1.23.12 2.5.29 3.77.41 3.33.45 6.71.79 10.15 1.14 2.06.21 4.11.37 6.16.59C1328.35 2458.51 1330.79 2458.74 1333.23 2458.92zM1374.33 2461.08L1370.5 2536l-.22 0c-.83 0-1.62 0-2.45-.07a2.55 2.55 0 01-.73 0c-3.11-.1-6.23-.2-9.29-.36-.34 0-.67 0-1 0h-.11l-10.57-.54c-.83 0-1.67-.14-2.5-.18l-.67 0 3.83-74.92h.28c1 .05 1.89.15 2.84.2l10.12.52c.33 0 .67 0 1 0C1365.48 2460.85 1369.88 2461 1374.33 2461.08zM1415.56 2460.79l-3.83 75c-2.18.06-4.42.17-6.71.22-3.52.1-7.09.14-10.6.18-.22 0-.5 0-.73 0-.56 0-1.17 0-1.73 0-2.62 0-5.18 0-7.8 0l3.83-75c6.74.07 13.55 0 20.37-.18C1410.76 2461 1413.16 2460.89 1415.56 2460.79zM1456.93 2457.78l-3.84 75-6.44.67-.84.12c-.17 0-.4 0-.62 0-4 .41-8.18.75-12.38 1-.61 0-1.29.1-1.9.13-1.79.13-3.64.26-5.48.33l3.83-75c1.68-.08 3.36-.17 5-.31 1.84-.07 3.63-.2 5.43-.39 2.41-.15 4.76-.37 7.11-.58l3.2-.34C1452.33 2458.27 1454.63 2458 1456.93 2457.78zM1498.5 2450.87l-3.84 75-.57.14a6.12 6.12 0 01-1 .23l-1.13.28c-2 .4-4 .85-6 1.25-.56.08-1.07.22-1.58.31-2.53.48-5.07 1-7.71 1.39l-.62.13a4.15 4.15 0 00-.73.08c-2.76.47-5.51.89-8.38 1.3l3.84-75c1.29-.15 2.53-.37 3.76-.53.06-.05.12-.05.23 0l3.88-.64a10.51 10.51 0 001.35-.21c2.64-.42 5.18-.91 7.71-1.39.51-.09 1-.23 1.52-.32 2.09-.39 4.12-.84 6.09-1.25.74-.18 1.41-.31 2.09-.5A11.17 11.17 0 011498.5 2450.87zM1540.56 2435.39l-3.85 75.26c-.81.52-1.61 1-2.47 1.44a1.91 1.91 0 01-.46.25 3.73 3.73 0 01-.63.36c-1.38.71-2.75 1.42-4.24 2.13-.17 0-.29.15-.46.2a.23.23 0 01-.17 0c-1.77.8-3.59 1.6-5.53 2.39a2.69 2.69 0 00-.62.25 4.34 4.34 0 00-.63.24c-2.1.79-4.26 1.57-6.59 2.34-.11 0-.17.11-.28.1a4.7 4.7 0 01-.63.19c-1.75.58-3.57 1.16-5.44 1.73l3.84-75.09c1.7-.53 3.35-1.06 4.93-1.59.29-.1.63-.19.91-.29 2.27-.77 4.49-1.55 6.59-2.34a8.12 8.12 0 001.25-.49c1-.4 1.94-.79 2.85-1.19s1.83-.8 2.68-1.21a2.71 2.71 0 00.63-.24 57.77 57.77 0 005.33-2.74c.69-.41 1.38-.77 2.07-1.18A8.54 8.54 0 001540.56 2435.39z" class="colorf4ad2e svgShape"/><path fill="#f4ad2e" d="M1552,2491.41l0,.61a16.7,16.7,0,0,1-.53,2.77c-.07.1,0,.27-.08.38a1.42,1.42,0,0,1-.07.22,18.09,18.09,0,0,1-1.2,2.78.2.2,0,0,0-.06.17,1.63,1.63,0,0,0-.3.37,25.46,25.46,0,0,1-1.45,2.22,1.61,1.61,0,0,0-.25.37c-.11.11-.17.22-.29.27a22.22,22.22,0,0,1-2.3,2.56v0a2.17,2.17,0,0,1-.29.21,23.9,23.9,0,0,1-2.57,2.27l-.35.31-.51.31a30.38,30.38,0,0,1-3,2.14c-.12.1-.18.21-.35.26,0,.05-.06.05-.12.05-.46.31-1,.62-1.49.92-.81.52-1.61,1-2.47,1.44a1.91,1.91,0,0,1-.46.25,3.73,3.73,0,0,1-.63.36c-1.38.71-2.75,1.42-4.24,2.13-.17,0-.29.15-.46.2a.23.23,0,0,1-.17,0c-1.77.8-3.59,1.6-5.53,2.39a2.69,2.69,0,0,0-.62.25,4.34,4.34,0,0,0-.63.24c-2.1.79-4.26,1.57-6.59,2.34-.11,0-.17.11-.28.1a4.7,4.7,0,0,1-.63.19c-1.75.58-3.57,1.16-5.44,1.73l-3,.85c-.12,0-.17,0-.23.1l-1.59.42c-1.18.33-2.43.65-3.73,1l-2.25.55-3,.68-.57.14a6.12,6.12,0,0,1-1,.23l-1.13.28c-2,.4-4,.85-6,1.25-.56.08-1.07.22-1.58.31-2.53.48-5.07,1-7.71,1.39l-.62.13a4.15,4.15,0,0,0-.73.08c-2.76.47-5.51.89-8.38,1.3-1.57.2-3.14.45-4.71.65l-8.79-4.85-26.79-14.87-13.29-7.37-26.79-14.87-13.28-7.37-26.79-14.87-13.29-7.37-2.49-1.41L1304,2443.93l-78.79-43.74,89.78-33.72,31.5-11.83,5.74.13c9.25.19,18.43.66,27.48,1.29,4.62.3,9.12.64,13.62,1,9.33.81,18.48,1.84,27.4,3,4.6.57,9.08,1.19,13.56,1.87,9.47,1.43,18.59,3.07,27.3,4.91,4.64.9,9.16,1.91,13.57,3,9.75,2.28,18.83,4.81,27.11,7.57q7.15,2.3,13.47,4.87c11,4.36,20.11,9.17,26.82,14.26a44.07,44.07,0,0,1,7.09,6.44c4.32,4.91,6.13,9.74,5.62,14.34v.06Z" class="colorf4ad2e svgShape"/><path fill="#ffcc4d" d="M1609.65,2329.62v.06a3.92,3.92,0,0,1-.17,1.16c-.13.44-.22.94-.35,1.38a5.7,5.7,0,0,1-.27,1,176.76,176.76,0,0,0-1.08,2.46.44.44,0,0,0-.12.22,17.83,17.83,0,0,1-1.69,2.48,11.88,11.88,0,0,1-1.6,1.92,5.73,5.73,0,0,0-.59.64,5,5,0,0,1-.94,1,24.72,24.72,0,0,1-2.57,2.21,14.54,14.54,0,0,1-2.32,1.72l-.75.52a15.72,15.72,0,0,1-2.25,1.5,4.82,4.82,0,0,1-.92.51c-.69.41-1.38.77-2.07,1.18a57.77,57.77,0,0,1-5.33,2.74c-1,.5-2.17,1-3.3,1.45l-2.85,1.19a7.86,7.86,0,0,1-1.26.49c-2.1.79-4.31,1.57-6.58,2.34-.29.1-.63.19-.91.29q-2.38.8-4.93,1.59c-1.19.33-2.38.71-3.63,1l-1.69.42c-1.25.38-2.49.7-3.79,1-.74.18-1.47.37-2.26.55s-1.69.42-2.54.6c-.34,0-.73.13-1.13.22-.67.19-1.35.32-2.09.5-2,.41-4,.86-6.08,1.26-.51.08-1,.22-1.52.31-2.54.48-5.07,1-7.72,1.39a10.51,10.51,0,0,1-1.35.21l-3.88.64c-.11,0-.16,0-.22,0-1.24.22-2.47.38-3.77.59-1.68.25-3.43.49-5.22.68-.79.13-1.63.25-2.41.32-1.69.19-3.32.45-5,.58l-1,.12h-.11l-.06.06c-2.91.35-5.89.64-9,.93l-1.17.11c-2.36.21-4.71.43-7.12.58-1.79.19-3.58.32-5.43.39-1.62.14-3.3.23-5,.31v.05a9,9,0,0,1-1.39,0c-2.86.19-5.82.38-8.84.44l-3.46.16c-2.41.1-4.81.2-7.21.25-3.4,0-6.81.15-10.21.14-1,.06-2,.07-3,.07-2.4,0-4.74,0-7.14,0-4.57.05-9.14,0-13.65-.14-1.4,0-2.79-.09-4.12-.1-3.07-.1-6.13-.2-9.13-.35h-.06c-2.11-.05-4.23-.16-6.34-.26-2.5-.13-4.95-.26-7.4-.44l-.44,0c-4.62-.29-9.12-.63-13.62-1-2.44-.18-4.88-.41-7.32-.65-2.06-.22-4.11-.38-6.16-.59-3.44-.35-6.83-.69-10.15-1.14-1.28-.12-2.55-.29-3.77-.41-.44-.08-.89-.1-1.33-.18-1.83-.26-3.66-.52-5.49-.73-2.27-.28-4.54-.62-6.75-1-2.44-.35-4.87-.69-7.25-1.09-2.77-.42-5.48-.9-8.13-1.37l-3.92-.7a.31.31,0,0,1-.22-.07c-1.22-.17-2.43-.4-3.65-.63-1.43-.3-2.76-.53-4.14-.77V2362l-1-.22-4.25-.89L1310,2360c-1.43-.3-2.81-.59-4.19-.94-.77-.15-1.55-.3-2.26-.51-1.71-.42-3.36-.84-5-1.26a3.61,3.61,0,0,1-.83-.21c-.83-.15-1.6-.36-2.42-.56l-2.42-.63-.77-.21c-2.2-.61-4.35-1.22-6.49-1.83-.93-.28-1.87-.6-2.8-.87l-4-1.21a.31.31,0,0,1-.22-.07c-.88-.26-1.82-.54-2.69-.86-1.26-.4-2.47-.85-3.67-1.25-.88-.26-1.7-.58-2.58-.91-1.48-.52-3-1-4.38-1.62-.06.06-.06.06-.11,0a5.15,5.15,0,0,1-.82-.32c-.49-.2-1-.39-1.48-.58-2.24-.9-4.42-1.79-6.49-2.73s-4-1.82-5.94-2.76c-.76-.37-1.52-.8-2.28-1.17s-1.74-.87-2.55-1.36c-.49-.25-.92-.55-1.41-.85-1.14-.62-2.28-1.29-3.36-2-.86-.55-1.73-1.09-2.54-1.64a16.23,16.23,0,0,1-1.77-1.31l-1.45-1.08c-.86-.66-1.66-1.37-2.46-2a8.59,8.59,0,0,1-1.12-1c-.53-.53-1.06-1-1.54-1.47a18.19,18.19,0,0,1-1.43-1.53,19.73,19.73,0,0,1-1.42-1.74c-.62-.87-1.19-1.68-1.71-2.54s-.86-1.66-1.27-2.47v0a15,15,0,0,1-.83-2.44,14.35,14.35,0,0,1-.43-2.48,10.26,10.26,0,0,1-.08-1.73v-.17c.33-7.45,6.54-14.5,17.68-20.62,7.34-4,16.79-7.73,28.11-10.94,4.35-1.23,8.93-2.33,13.83-3.42,8.52-1.91,17.81-3.55,27.81-4.94q6.65-.91,13.8-1.63c8.75-1,18-1.71,27.66-2.21,4.48-.28,9.06-.49,13.69-.59,1.46-.09,2.91-.13,4.42-.16,7.71-.22,15.46-.27,23.15-.21,4.58,0,9.14.13,13.65.25,5.47.11,10.92.34,16.31.61,3.73.19,7.51.44,11.18.68,4.61.3,9.11.64,13.61,1,9.33.81,18.48,1.84,27.4,3,4.6.57,9.09,1.19,13.57,1.87,9.46,1.43,18.58,3.07,27.3,4.91,4.63.9,9.16,1.91,13.56,3,9.76,2.28,18.83,4.81,27.11,7.57q7.15,2.29,13.47,4.87c11,4.36,20.11,9.17,26.82,14.26a43.64,43.64,0,0,1,7.09,6.44C1608.35,2320.19,1610.17,2325,1609.65,2329.62Z" class="colorffcc4d svgShape"/><path fill="#f4ad2e" d="M1568.39,2327.67a5.11,5.11,0,0,1-.13.91c-.11.35-.17.74-.28,1.08a2.45,2.45,0,0,1-.21.78,4.81,4.81,0,0,1-.35.77c0,.09,0,.18-.1.26a2,2,0,0,1-.3.69,1.92,1.92,0,0,0-.19.38,14,14,0,0,1-1.33,1.95,9,9,0,0,1-1.26,1.52,2.17,2.17,0,0,1-.47.5,3.5,3.5,0,0,1-.74.75,17.64,17.64,0,0,1-2,1.74,11.5,11.5,0,0,1-1.82,1.36,2.09,2.09,0,0,1-.59.41,12.21,12.21,0,0,1-1.78,1.18,3.83,3.83,0,0,1-.72.4c-.54.32-1.08.6-1.62.93a47.11,47.11,0,0,1-4.2,2.15c-.8.4-1.7.79-2.6,1.14-.72.32-1.48.63-2.24.94a7.15,7.15,0,0,1-1,.39q-4.5,1.74-9.78,3.31c-.94.26-1.87.57-2.85.82-1.43.41-2.85.78-4.32,1.14-.58.15-1.15.3-1.77.44s-1.34.33-2,.47c-.85.22-1.69.39-2.53.57-3.82.86-7.85,1.62-12.06,2.32-1.42.28-2.83.47-4.29.71-1,.17-1.94.29-3,.46-1.33.19-2.7.39-4.11.53l-1.33.2c-1.5.19-3,.37-4.54.51a2.44,2.44,0,0,1-.84.09l0,0c-5.69.63-11.64,1.21-17.85,1.59-1.27.11-2.59.18-3.91.24v0a9.57,9.57,0,0,1-1.09,0c-3.17.18-6.39.37-9.68.47-1.89.07-3.78.15-5.67.19-3.47.08-6.94.13-10.41.17-1.89,0-3.73,0-5.61,0-3.6,0-7.2,0-10.75-.11s-7-.18-10.46-.36c-1.67,0-3.33-.12-5-.21-2-.1-3.9-.2-5.82-.34l-.35,0c-3.63-.23-7.17-.5-10.71-.76-1.93-.15-3.85-.33-5.77-.52-1.61-.17-3.23-.3-4.84-.47-1.36-.15-2.71-.27-4-.42-2.31-.25-4.62-.54-6.94-.79a11.53,11.53,0,0,0-1.3-.16c-1.35-.2-2.7-.4-4.06-.56-1.78-.22-3.57-.49-5.31-.75-1.92-.27-3.83-.55-5.7-.86-2.18-.33-4.31-.71-6.4-1.08s-4.13-.73-6.13-1.1c-1.13-.23-2.17-.42-3.26-.6v-.05c-2.52-.48-5-1-7.38-1.56-1.12-.23-2.21-.46-3.29-.74-.61-.12-1.22-.24-1.78-.4-2.21-.51-4.38-1.06-6.5-1.6-2.6-.71-5.15-1.36-7.61-2.1-1.82-.53-3.59-1.06-5.32-1.63,0,0-.13,0-.17-.06-.69-.21-1.43-.42-2.12-.68-2.93-.94-5.69-1.91-8.36-3,0,0,0,0-.08,0a2.68,2.68,0,0,1-.73-.3c-1.25-.46-2.5-1-3.7-1.47-2.54-1.05-4.94-2.13-7.16-3.26-.6-.29-1.24-.59-1.8-.92s-1.37-.69-2-1.07c-1.32-.73-2.55-1.45-3.74-2.21-.68-.43-1.36-.86-2-1.29a11.78,11.78,0,0,1-1.4-1l-1.14-.85c-.67-.52-1.3-1.08-1.93-1.59-.3-.24-.59-.52-.88-.79-.42-.42-.84-.79-1.22-1.16a15.23,15.23,0,0,1-1.12-1.2,16.48,16.48,0,0,1-1.12-1.37c-.49-.69-.94-1.32-1.34-2a12.68,12.68,0,0,1-1.64-3.9,9.61,9.61,0,0,1-.34-1.95,7.19,7.19,0,0,1-.07-1.37c.22-5.91,5.11-11.49,13.92-16.35a107.89,107.89,0,0,1,22.11-8.61c3.43-1,7-1.84,10.89-2.69,6.7-1.5,14-2.8,21.87-3.88q5.24-.72,10.86-1.29c6.88-.75,14.15-1.34,21.76-1.74,3.53-.22,7.13-.38,10.78-.46,1.14-.07,2.28-.1,3.47-.13,6.06-.17,12.16-.21,18.22-.16,3.59,0,7.19.1,10.74.19,7.27.16,14.49.53,21.62,1,3.63.23,7.17.5,10.71.77,7.34.64,14.54,1.44,21.55,2.33,3.62.45,7.15.94,10.68,1.47,7.44,1.12,14.62,2.41,21.48,3.86,3.65.71,7.2,1.51,10.67,2.34,7.67,1.8,14.81,3.79,21.33,6,3.75,1.21,7.28,2.48,10.59,3.84,8.69,3.43,15.82,7.21,21.1,11.21a34.85,34.85,0,0,1,5.58,5.07C1567.37,2320.2,1568.8,2324.05,1568.39,2327.67Z" class="colorf4ad2e svgShape"/><path fill="#f4ad2e" d="M1606.36,2403.79l0,.62a15.8,15.8,0,0,1-.53,2.76c-.06.1,0,.27-.08.38s-.06.17-.06.22a20.28,20.28,0,0,1-1.2,2.78.21.21,0,0,0-.07.17,1.63,1.63,0,0,0-.3.37,25.46,25.46,0,0,1-1.45,2.22,1.55,1.55,0,0,0-.24.37c-.12.11-.18.22-.29.27a23.32,23.32,0,0,1-2.31,2.56v0a3.09,3.09,0,0,1-.29.21,26,26,0,0,1-2.57,2.27l-.35.31-.52.31a29.25,29.25,0,0,1-3,2.14c-.12.1-.18.21-.35.26,0,.05-.06.05-.11.05-.46.31-1,.62-1.5.92-.81.52-1.61,1-2.47,1.44a1.74,1.74,0,0,1-.46.25,3.38,3.38,0,0,1-.63.36c-1.38.71-2.75,1.42-4.24,2.13-.17.05-.28.15-.45.2a.19.19,0,0,1-.17,0c-1.77.81-3.6,1.61-5.53,2.4a2.75,2.75,0,0,0-.63.25,4.34,4.34,0,0,0-.63.24c-2.1.79-4.26,1.57-6.59,2.34-.11.05-.17.11-.28.1a4.61,4.61,0,0,1-.62.19q-2.64.87-5.44,1.73l-3.06.85c-.11,0-.17,0-.23.1l-1.58.42c-1.19.33-2.43.65-3.73,1l-2.26.55-3,.68-.56.14a6.24,6.24,0,0,1-1,.23l-1.13.28c-2,.4-4,.85-6,1.25-.56.08-1.07.22-1.58.31-2.53.48-5.06,1-7.71,1.39l-.62.13a4.26,4.26,0,0,0-.73.08c-2.75.47-5.51.89-8.37,1.3-1.57.2-3.15.45-4.72.65-.51.09-1,.12-1.52.2-2.47.32-5,.64-7.57.9l-6.45.67-.84.12c-.17,0-.39,0-.62,0-4,.41-8.18.75-12.37,1-.62,0-1.29.1-1.91.13-1.79.13-3.64.26-5.48.33-2.41.15-4.92.3-7.38.4a5.71,5.71,0,0,1-1,.06,10,10,0,0,1-1.34,0c-1.34.05-2.63.09-4,.19-2.18.06-4.41.17-6.7.22-3.52.1-7.09.14-10.61.18-.22,0-.5,0-.72,0-.56,0-1.17,0-1.73,0-2.62,0-5.19,0-7.81,0-.84,0-1.73,0-2.56,0-.62,0-1.23,0-1.85,0a15.47,15.47,0,0,0-1.67,0c-2.56-.08-5.07-.09-7.57-.16l-.23,0c-.83,0-1.61,0-2.45-.07a2.48,2.48,0,0,1-.72,0c-3.12-.1-6.24-.2-9.3-.36-.33,0-.67,0-1,0h-.11l-10.57-.54c-.83,0-1.66-.14-2.5-.18l-.66,0c-2.17-.16-4.34-.27-6.51-.44l-.94-.05c-.89-.1-1.83-.15-2.78-.25-1.11-.12-2.27-.18-3.38-.29s-2-.15-3-.2c-.44,0-.94-.11-1.44-.13-.83-.1-1.67-.14-2.44-.24-2.06-.22-4.11-.38-6.16-.59-.67-.09-1.34-.13-2-.22s-1.28-.12-1.89-.21c-2.1-.21-4.21-.43-6.26-.71l-2.38-.29c-.45,0-.84-.09-1.28-.12-.22,0-.39-.07-.61-.08l-6.26-.83-2.38-.28a1.57,1.57,0,0,0-.56-.09c-1.49-.24-2.93-.43-4.37-.67l-5.26-.77a.34.34,0,0,1-.22-.07,9.74,9.74,0,0,1-1.27-.17c-2.76-.48-5.48-.9-8.13-1.37-.33-.07-.72-.09-1-.16-.66-.15-1.27-.23-1.93-.38-2.32-.4-4.64-.85-7-1.3-.61-.15-1.22-.23-1.77-.32a4.89,4.89,0,0,0-.72-.15,1.78,1.78,0,0,0-.49-.13l-9.61-2c-.05,0-.05-.06-.1-.06h-.06c-1.1-.23-2.2-.51-3.31-.73-2.31-.56-4.57-1.13-6.77-1.68a11.61,11.61,0,0,1-1.27-.29c-.33-.08-.66-.2-1-.28-3.63-.91-7.21-1.87-10.67-2.88a1.59,1.59,0,0,0-.55-.14c-.77-.27-1.48-.47-2.25-.73l-4-1.21-.72-.2c-.71-.21-1.43-.47-2.19-.73-1.26-.4-2.47-.85-3.68-1.25-.38-.13-.71-.2-1-.33-.55-.19-1-.38-1.53-.58-1.48-.52-3-1-4.38-1.62l-.6-.19c-.6-.26-1.26-.46-1.81-.71-1.42-.57-2.84-1.15-4.2-1.78-.71-.26-1.37-.57-2-.83-1.8-.76-3.49-1.57-5.12-2.38a3.27,3.27,0,0,1-.66-.31c-1.85-.87-3.58-1.8-5.27-2.72-.48-.25-.91-.55-1.4-.85-1.14-.62-2.28-1.29-3.36-2-.54-.36-1.08-.72-1.56-1.08s-1-.61-1.46-1l-1.29-.9-1.45-1.08c-.86-.66-1.66-1.37-2.46-2-.37-.36-.75-.65-1.12-1-1.07-1-2.08-2-3-3-4.06-4.66-5.89-9.22-5.72-13.62l3.32-74.78a10.26,10.26,0,0,0,.08,1.73,14.35,14.35,0,0,0,.43,2.48,15,15,0,0,0,.83,2.44v0c.41.81.81,1.66,1.27,2.47s1.09,1.67,1.71,2.54a19.73,19.73,0,0,0,1.42,1.74,18.19,18.19,0,0,0,1.43,1.53c.48.47,1,.94,1.54,1.47a8.59,8.59,0,0,0,1.12,1c.8.65,1.6,1.36,2.46,2l1.45,1.08c.59.42,1.18.84,1.78,1.2a9.9,9.9,0,0,0,1,.67c.48.35,1,.72,1.56,1.08,1.08.67,2.22,1.34,3.36,2,.49.3.92.6,1.41.85.81.49,1.68.92,2.55,1.36s1.52.8,2.28,1.17l2.45,1.13c1.09.56,2.23,1.12,3.49,1.63,2.07.94,4.25,1.83,6.49,2.73.44.19,1,.38,1.48.58.28.07.55.19.82.26v.06c0,.06,0,.06.11,0,1.42.58,2.9,1.1,4.38,1.62.88.33,1.7.65,2.58.91,1.2.4,2.41.85,3.67,1.25.87.32,1.81.6,2.69.86a.31.31,0,0,0,.22.07l4,1.21c.93.27,1.87.59,2.8.87,2.14.61,4.29,1.22,6.49,1.83l.77.21c1.32.35,2.7.64,4,1l.82.2a3.61,3.61,0,0,0,.83.21c1.65.42,3.3.84,5,1.26.71.21,1.49.36,2.26.51,1.38.35,2.76.64,4.19.94l4.14.88,4.25.89,1,.22c.66.09,1.33.23,1.93.37,1.94.38,3.92.76,5.86,1.08a.31.31,0,0,0,.22.07l3.92.7c2.65.47,5.36,1,8.13,1.37,2.38.4,4.81.74,7.25,1.09,2.21.34,4.48.68,6.75,1,1.83.21,3.66.47,5.49.73.44.08.89.1,1.33.18,1.22.12,2.49.29,3.77.41,3.32.45,6.71.79,10.15,1.14,2,.21,4.1.37,6.16.59,2.44.24,4.88.47,7.32.65,4.5.35,9,.69,13.62,1l.44,0c.89,0,1.78.15,2.67.19l10.12.52c.34,0,.62,0,1,0h.06c3,.15,6.06.25,9.13.35,1.33,0,2.72.09,4.12.1,4.51.12,9.08.19,13.65.14,3.35.06,6.75,0,10.16,0s6.81-.09,10.21-.14c2.4-.05,4.8-.15,7.21-.25l3.46-.16c3-.06,6-.25,8.84-.44l1.39-.09c1.68-.08,3.36-.17,5-.31,1.85-.07,3.64-.2,5.43-.39,2.41-.15,4.76-.37,7.12-.58l1.17-.11,2-.23c2.36-.21,4.66-.49,7-.7v-.06h.16l1-.12c1.68-.14,3.36-.33,5-.58.78-.07,1.62-.19,2.41-.32l5.23-.74c1.29-.15,2.52-.37,3.76-.53.06-.05.11-.05.22,0l3.88-.64a10.51,10.51,0,0,0,1.35-.21c2.65-.42,5.18-.91,7.72-1.39.5-.09,1-.23,1.52-.31,2.08-.4,4.11-.85,6.08-1.26.74-.18,1.42-.31,2.09-.5.4-.09.79-.18,1.13-.22v-.06l2.54-.54c.79-.18,1.52-.37,2.26-.55,1.3-.33,2.54-.65,3.79-1l1.69-.42c1.25-.33,2.44-.71,3.63-1q2.55-.8,4.93-1.59c.28-.1.62-.19.91-.29,2.27-.77,4.48-1.55,6.58-2.34a7.86,7.86,0,0,0,1.26-.49l2.85-1.19c.91-.4,1.82-.8,2.68-1.21a2.64,2.64,0,0,0,.62-.24,57.77,57.77,0,0,0,5.33-2.74c.69-.41,1.38-.77,2.07-1.18a7.66,7.66,0,0,0,.92-.57c.35-.2.69-.41,1-.61a4,4,0,0,0,.46-.31,7.34,7.34,0,0,0,.81-.52l.75-.52c.52-.36,1-.73,1.45-1.1l.87-.62a24.72,24.72,0,0,0,2.57-2.21,1.68,1.68,0,0,0,.29-.32c.24-.21.41-.43.65-.64a5.73,5.73,0,0,1,.59-.64,10.23,10.23,0,0,0,1.07-1.28l.53-.64a25.46,25.46,0,0,0,1.45-2.22,1.14,1.14,0,0,1,.24-.26.44.44,0,0,1,.12-.22,176.76,176.76,0,0,1,1.08-2.46,5.7,5.7,0,0,0,.27-1c.13-.44.22-.94.35-1.38a3.92,3.92,0,0,0,.17-1.16Z" class="colorf4ad2e svgShape"/><path fill="#f4ad2e" d="M1265.17 2347l-3.82 74.82c-.6-.26-1.26-.46-1.81-.71-1.42-.57-2.84-1.15-4.2-1.78-.71-.26-1.37-.57-2-.83-1.8-.76-3.49-1.57-5.12-2.38a3.27 3.27 0 01-.66-.31c-1.85-.87-3.58-1.8-5.27-2.72-.48-.25-.91-.55-1.4-.85-1.14-.62-2.28-1.29-3.36-2-.54-.36-1.08-.72-1.56-1.08s-1-.61-1.46-1l3.82-74.65a9.9 9.9 0 001 .67c.48.35 1 .72 1.56 1.08 1.08.67 2.22 1.34 3.36 2 .49.3.92.6 1.41.85.81.49 1.68.92 2.55 1.36s1.52.8 2.28 1.17l2.45 1.13c1.09.56 2.23 1.12 3.49 1.63 2.07.94 4.25 1.83 6.49 2.73.44.19 1 .38 1.48.58C1264.63 2346.78 1264.9 2346.9 1265.17 2347zM1305.75 2359l-3.83 74.87q-3.47-.86-6.77-1.69a11.55 11.55 0 01-1.27-.28c-.33-.08-.65-.21-1-.28-3.63-.91-7.21-1.87-10.67-2.89a2.12 2.12 0 00-.55-.14c-.77-.26-1.48-.46-2.25-.72l-4-1.21-.72-.2 3.83-74.82a.31.31 0 00.22.07l4 1.2c.94.28 1.87.6 2.8.87 2.15.61 4.29 1.23 6.49 1.84 1.54.41 3.19.78 4.79 1.19a16.63 16.63 0 001.65.42l5 1.26C1304.21 2358.73 1305 2358.88 1305.75 2359zM1346.63 2366.64l-3.82 74.87-5.26-.77a.31.31 0 01-.22-.07 9.67 9.67 0 01-1.28-.17c-2.76-.48-5.47-.9-8.13-1.37-.33-.07-.72-.09-1.05-.16-.66-.15-1.27-.24-1.93-.38-2.32-.4-4.64-.85-7-1.31-.61-.14-1.21-.22-1.77-.31a3.62 3.62 0 00-.71-.15l3.82-74.87c.67.09 1.33.24 1.94.38l6.07 1.15 3.93.7c2.65.47 5.36.94 8.12 1.37C1341.76 2366 1344.2 2366.29 1346.63 2366.64zM1387.61 2371.3l-3.83 74.87c-1-.05-1.94-.15-3-.21-.44 0-.94-.1-1.44-.13-.83-.09-1.66-.14-2.44-.23-2-.22-4.11-.38-6.16-.6-.66-.09-1.33-.12-2-.21s-1.27-.12-1.88-.21c-2.11-.22-4.22-.44-6.27-.71l-2.38-.29c-.45 0-.83-.1-1.28-.12-.22 0-.38-.07-.61-.08l3.83-74.88c1.22.12 2.5.3 3.77.42 3.33.45 6.71.79 10.15 1.13 2.05.22 4.11.38 6.16.6C1382.72 2370.88 1385.16 2371.12 1387.61 2371.3zM1428.71 2373.46l-3.83 74.92h-.22c-.84 0-1.62 0-2.45-.07a3 3 0 01-.73 0c-3.12-.1-6.23-.21-9.29-.36-.34 0-.67 0-1 0h-.11l-10.57-.54c-.84 0-1.67-.14-2.5-.19l-.67 0 3.83-74.92h.28c1 .05 1.89.15 2.83.2l10.13.52c.33 0 .67 0 1 0C1419.86 2373.23 1424.26 2373.34 1428.71 2373.46zM1469.94 2373.17l-3.83 75c-2.18.06-4.42.16-6.71.21-3.52.1-7.09.14-10.6.19-.23 0-.51 0-.73 0-.56 0-1.17 0-1.73 0-2.62 0-5.19 0-7.81 0l3.84-75c6.74.07 13.55 0 20.36-.19C1465.13 2373.37 1467.54 2373.27 1469.94 2373.17zM1511.31 2370.15l-3.84 75c-2.13.23-4.26.46-6.45.68l-.84.12c-.16 0-.39 0-.61 0-4 .4-8.18.75-12.38 1-.61 0-1.29.1-1.9.12-1.79.13-3.64.26-5.49.34l3.84-75c1.68-.09 3.35-.17 5-.31 1.84-.07 3.63-.2 5.43-.39 2.4-.16 4.76-.37 7.11-.58l3.2-.34C1506.71 2370.64 1509 2370.37 1511.31 2370.15zM1552.87 2363.24l-3.83 75-.57.14a7.69 7.69 0 01-1 .23l-1.13.27c-2 .4-4 .86-6 1.26-.57.08-1.08.22-1.58.31-2.54.48-5.07 1-7.71 1.39l-.62.13a3.32 3.32 0 00-.73.08c-2.76.47-5.51.89-8.38 1.3l3.84-75c2.7-.36 5.28-.79 7.87-1.21.45 0 .9-.13 1.35-.21 2.64-.43 5.18-.91 7.71-1.39.51-.09 1-.23 1.52-.32 2.09-.39 4.12-.85 6.09-1.25.73-.18 1.41-.32 2.09-.5A9.32 9.32 0 011552.87 2363.24zM1594.93 2347.77l-3.84 75.26c-.81.52-1.62 1-2.48 1.44a2.09 2.09 0 01-.46.25 3.09 3.09 0 01-.63.36c-1.37.71-2.75 1.42-4.23 2.13-.17 0-.29.15-.46.2a.18.18 0 01-.17 0c-1.77.8-3.59 1.6-5.53 2.4a2.71 2.71 0 00-.63.24 6.19 6.19 0 00-.62.25c-2.11.79-4.27 1.57-6.59 2.34a.67.67 0 01-.29.1 4.21 4.21 0 01-.62.19c-1.76.58-3.57 1.15-5.44 1.73l3.84-75.09q2.55-.8 4.93-1.59c.29-.1.63-.19.91-.29 2.27-.78 4.49-1.56 6.59-2.34a8.12 8.12 0 001.25-.49c1-.4 1.94-.8 2.85-1.2s1.83-.8 2.68-1.2a2.36 2.36 0 00.63-.25 59 59 0 005.33-2.73c.69-.42 1.37-.77 2.06-1.18A7.66 7.66 0 001594.93 2347.77z" class="colorf4ad2e svgShape"/><path fill="#f4ad2e" d="M1477.09,2354.74l-20.28,7.22-32.2,11.4-23.86,8.43-13.92,5-28,9.94-13.92,4.92-28.06,9.94-14,5-28.06,9.94c-.71-.21-1.43-.47-2.19-.73-1.26-.4-2.47-.85-3.68-1.25-.38-.13-.71-.2-1-.33-.55-.19-1-.38-1.53-.58-1.48-.52-3-1-4.38-1.62l-.6-.19c-.6-.26-1.26-.46-1.81-.71-1.42-.57-2.84-1.15-4.2-1.78-.71-.26-1.37-.57-2-.83-1.8-.76-3.49-1.57-5.12-2.38a3.27,3.27,0,0,1-.66-.31c-1.85-.87-3.58-1.8-5.27-2.72-.48-.25-.91-.55-1.4-.85-1.14-.62-2.28-1.29-3.36-2-.54-.36-1.08-.72-1.56-1.08s-1-.61-1.46-1l-1.29-.9-1.45-1.08c-.86-.66-1.66-1.37-2.46-2-.37-.36-.75-.65-1.12-1-1.07-1-2.08-2-3-3-4.06-4.66-5.89-9.22-5.72-13.62l3.32-74.78v-.17c.33-7.45,6.54-14.5,17.68-20.62,7.34-4,16.79-7.73,28.11-10.94,4.35-1.23,8.93-2.33,13.83-3.42,8.52-1.91,17.81-3.55,27.81-4.94q6.65-.91,13.8-1.63c8.75-1,18-1.71,27.66-2.21,4.48-.28,9.06-.49,13.69-.59,1.46-.09,2.91-.13,4.42-.16,7.71-.22,15.46-.27,23.15-.21,4.58,0,9.14.13,13.65.25,5.47.11,10.92.34,16.31.61l7.32,11.75Z" class="colorf4ad2e svgShape"/><path fill="#ffcc4d" d="M1564.28,2240.91v.05a4,4,0,0,1-.17,1.17c-.13.44-.21.93-.35,1.37a5.81,5.81,0,0,1-.27,1,8.57,8.57,0,0,1-.44,1,.87.87,0,0,1-.13.32,2.48,2.48,0,0,1-.38.88c0,.11-.06.16-.12.27a.48.48,0,0,0-.13.21,17.45,17.45,0,0,1-1.68,2.48,12,12,0,0,1-1.61,1.93c-.18.21-.41.42-.59.64a5,5,0,0,1-.94.95,22.52,22.52,0,0,1-2.57,2.21,14.15,14.15,0,0,1-2.32,1.73l-.75.52a16,16,0,0,1-2.25,1.5,4.54,4.54,0,0,1-.92.51c-.69.41-1.37.77-2.06,1.18q-2.5,1.46-5.33,2.74c-1,.5-2.17,1-3.31,1.44-.91.4-1.88.8-2.85,1.2a8.12,8.12,0,0,1-1.25.49c-2.1.78-4.32,1.56-6.59,2.34-.28.1-.62.19-.91.29q-2.38.8-4.93,1.59c-1.19.33-2.38.71-3.62,1l-1.7.41c-1.24.39-2.49.71-3.79,1-.73.18-1.47.37-2.26.55s-1.69.42-2.54.6a7.6,7.6,0,0,0-1.12.22c-.68.18-1.36.32-2.09.5-2,.4-4,.86-6.09,1.25-.51.09-1,.23-1.52.32-2.54.48-5.07,1-7.71,1.39-.45.08-.9.17-1.35.21l-3.88.63c-.11,0-.17,0-.23.05-1.24.21-2.47.37-3.76.59-1.69.24-3.43.49-5.23.68-.78.12-1.63.25-2.41.32-1.68.19-3.31.44-5,.58l-1,.12H1466l-.06.05c-2.92.36-5.89.65-9,.94l-1.18.11c-2.35.21-4.71.42-7.11.58-1.8.19-3.59.32-5.43.39-1.63.14-3.3.22-5,.31v.05a10.65,10.65,0,0,1-1.4,0c-2.86.19-5.82.37-8.83.44l-3.47.16c-2.4.1-4.81.2-7.21.24-4.07.13-8.15.14-12.22.22-2.74,0-5.41,0-8.14,0-4.58,0-9.15,0-13.66-.14s-8.85-.23-13.25-.46h0c-2.12-.05-4.23-.16-6.35-.27-2.5-.12-5-.25-7.39-.43l-.45,0c-4.61-.3-9.11-.64-13.61-1-.84,0-1.72-.14-2.55-.24-1.62-.08-3.17-.27-4.78-.41-2.05-.22-4.11-.38-6.16-.6-3.44-.34-6.82-.68-10.15-1.13-1.27-.12-2.55-.3-3.77-.41-.44-.08-.89-.11-1.33-.18-1.83-.27-3.65-.53-5.48-.73-2.27-.28-4.54-.62-6.76-1-2.43-.35-4.87-.69-7.25-1.1-2.76-.42-5.47-.89-8.12-1.36l-3.93-.7-3.87-.7c-1.43-.3-2.76-.53-4.14-.77v-.06l-1-.21-4.25-.89-4.14-.88c-1.43-.3-2.81-.59-4.19-.94-.77-.15-1.54-.3-2.26-.51l-5-1.26a4,4,0,0,1-.82-.21c-.83-.15-1.6-.36-2.43-.57l-3.19-.83c-2.2-.61-4.34-1.23-6.49-1.84-.93-.27-1.86-.59-2.8-.87l-4-1.2a.31.31,0,0,1-.22-.07c-.88-.27-1.81-.54-2.69-.86-1.26-.4-2.46-.85-3.67-1.25-.88-.27-1.7-.59-2.58-.91-1.47-.52-3-1-4.37-1.62-.06,0-.06,0-.12,0a6,6,0,0,1-.82-.32c-.49-.2-1-.39-1.47-.58-2.24-.9-4.43-1.79-6.5-2.73s-4-1.83-5.94-2.76c-.76-.37-1.58-.75-2.28-1.18-.87-.43-1.74-.87-2.55-1.35-.49-.25-.92-.55-1.41-.86-1.14-.61-2.27-1.28-3.35-1.95-.87-.55-1.73-1.09-2.54-1.64a14.41,14.41,0,0,1-1.78-1.32l-1.45-1.07c-.85-.66-1.66-1.37-2.46-2a8.4,8.4,0,0,1-1.12-1c-.53-.53-1.06-1-1.54-1.47a18.19,18.19,0,0,1-1.43-1.53,17.94,17.94,0,0,1-1.41-1.74c-.63-.87-1.2-1.68-1.71-2.54a16.13,16.13,0,0,1-2.09-5,12.05,12.05,0,0,1-.43-2.48,9.38,9.38,0,0,1-.08-1.73v-.17c.32-7.46,6.54-14.5,17.67-20.62,7.34-4,16.79-7.73,28.11-10.95,4.36-1.22,8.93-2.33,13.84-3.41q12.78-2.86,27.8-4.94,6.66-.91,13.8-1.64c8.75-.94,18-1.7,27.67-2.21,4.47-.27,9.05-.48,13.69-.58,1.45-.09,2.91-.13,4.41-.16,7.71-.22,15.47-.27,23.16-.21,2.62,0,5.29,0,7.91.12l5.74.13c9.25.19,18.42.66,27.48,1.29,4.62.29,9.12.64,13.62,1,9.32.81,18.47,1.83,27.39,3,4.6.57,9.09,1.19,13.57,1.86q14.21,2.16,27.3,4.91c4.64.91,9.16,1.92,13.57,3,9.75,2.29,18.82,4.81,27.1,7.58q7.17,2.3,13.47,4.87c11,4.36,20.11,9.17,26.82,14.26a43.23,43.23,0,0,1,7.09,6.44C1563,2231.47,1564.79,2236.31,1564.28,2240.91Z" class="colorffcc4d svgShape"/><path fill="#f4ad2e" d="M1523,2239a5.11,5.11,0,0,1-.13.91c-.11.35-.17.74-.28,1.08a2.38,2.38,0,0,1-.21.78,4.81,4.81,0,0,1-.35.77c0,.09,0,.18-.1.26a2,2,0,0,1-.3.69,1.92,1.92,0,0,0-.19.38,14,14,0,0,1-1.33,2,9.48,9.48,0,0,1-1.26,1.52,2.17,2.17,0,0,1-.47.5,3.5,3.5,0,0,1-.74.75,18.54,18.54,0,0,1-2,1.74,11.5,11.5,0,0,1-1.82,1.36,2.09,2.09,0,0,1-.59.41,12.21,12.21,0,0,1-1.78,1.18,3.83,3.83,0,0,1-.72.4c-.54.32-1.08.6-1.62.93a47.11,47.11,0,0,1-4.2,2.15c-.8.4-1.7.79-2.6,1.14-.72.32-1.48.63-2.24.94a6.8,6.8,0,0,1-1,.39q-4.48,1.74-9.77,3.31c-.94.26-1.88.57-2.85.82-1.43.41-2.85.78-4.32,1.14-.58.15-1.15.3-1.78.44s-1.33.33-2,.47c-.85.22-1.69.39-2.53.57-3.82.86-7.85,1.62-12.06,2.32-1.42.28-2.83.47-4.29.71-1,.17-1.94.29-3,.46-1.33.19-2.7.39-4.11.53l-1.33.2c-1.5.19-3,.37-4.54.51a2.44,2.44,0,0,1-.84.09l0,0c-5.69.63-11.64,1.21-17.85,1.59-1.27.11-2.59.18-3.91.24v0a7.76,7.76,0,0,1-1.09,0c-3.17.19-6.39.38-9.68.48-1.89.07-3.78.15-5.67.19-3.47.08-6.94.13-10.41.17-1.89,0-3.73,0-5.61,0-3.6,0-7.2,0-10.75-.11s-7-.18-10.47-.36c-1.66,0-3.32-.12-5-.21-2-.1-3.89-.2-5.81-.34l-.35,0c-3.63-.23-7.17-.5-10.71-.76-1.93-.15-3.85-.33-5.77-.52-1.61-.17-3.23-.3-4.85-.47-1.35-.15-2.7-.27-4-.42-2.31-.25-4.62-.54-6.94-.79a11.43,11.43,0,0,0-1.31-.16c-1.35-.2-2.69-.4-4-.56-1.78-.22-3.57-.49-5.31-.75-1.92-.27-3.83-.55-5.7-.86-2.18-.33-4.31-.71-6.4-1.08s-4.13-.73-6.13-1.1c-1.13-.23-2.17-.42-3.26-.61v0c-2.52-.48-5-1-7.38-1.56-1.12-.23-2.21-.46-3.29-.74-.61-.12-1.22-.24-1.78-.4-2.21-.51-4.38-1.05-6.5-1.6-2.6-.71-5.15-1.36-7.62-2.1-1.81-.53-3.58-1.06-5.31-1.63,0,0-.13,0-.17-.06-.69-.21-1.43-.42-2.12-.68-2.93-.94-5.69-1.91-8.36-3,0,0,0,0-.08,0a2.68,2.68,0,0,1-.73-.3c-1.25-.46-2.5-1-3.7-1.46-2.54-1.06-4.94-2.14-7.16-3.27-.6-.29-1.25-.59-1.8-.92s-1.37-.69-2-1.07c-1.32-.73-2.55-1.45-3.74-2.21-.68-.43-1.36-.86-2-1.29a11.78,11.78,0,0,1-1.4-1l-1.14-.85c-.67-.52-1.3-1.08-1.93-1.59-.3-.24-.59-.52-.88-.79-.42-.42-.84-.79-1.22-1.16a15.23,15.23,0,0,1-1.12-1.2,16.48,16.48,0,0,1-1.12-1.37c-.49-.69-.94-1.32-1.34-2a12.68,12.68,0,0,1-1.64-3.9,9.61,9.61,0,0,1-.34-1.95,7.19,7.19,0,0,1-.07-1.37c.22-5.91,5.11-11.49,13.92-16.35a107.89,107.89,0,0,1,22.11-8.61c3.43-1,7-1.84,10.89-2.69,6.7-1.5,14-2.79,21.87-3.88q5.23-.72,10.86-1.29c6.88-.75,14.15-1.34,21.76-1.74,3.52-.22,7.13-.38,10.78-.46,1.14-.07,2.28-.1,3.47-.13,6.06-.17,12.16-.21,18.22-.16,3.59,0,7.19.1,10.74.19,7.27.16,14.49.53,21.62,1,3.63.23,7.17.5,10.71.77,7.34.64,14.54,1.44,21.55,2.33,3.62.45,7.15.94,10.68,1.47,7.44,1.12,14.62,2.41,21.48,3.86,3.64.71,7.2,1.51,10.67,2.34,7.67,1.8,14.81,3.79,21.32,6q5.64,1.8,10.6,3.83c8.69,3.43,15.82,7.21,21.1,11.21a34.85,34.85,0,0,1,5.58,5.07C1522,2231.49,1523.44,2235.34,1523,2239Z" class="colorf4ad2e svgShape"/><path fill="#f4ad2e" d="M1561,2315.08l0,.61a15.45,15.45,0,0,1-.53,2.76c-.06.11,0,.28-.07.39s-.07.17-.07.22a20.28,20.28,0,0,1-1.2,2.78.25.25,0,0,0-.07.17,1.62,1.62,0,0,0-.29.37,23.91,23.91,0,0,1-1.45,2.21,1.38,1.38,0,0,0-.25.38c-.11.11-.18.22-.29.27a23.32,23.32,0,0,1-2.31,2.56v0a3.09,3.09,0,0,1-.29.21,24.9,24.9,0,0,1-2.57,2.27l-.35.31-.52.31a30.81,30.81,0,0,1-3,2.13c-.11.11-.17.22-.34.26,0,.06-.06.06-.12,0-.46.32-1,.62-1.49.93-.81.52-1.62,1-2.48,1.44a1.74,1.74,0,0,1-.46.25,3.09,3.09,0,0,1-.63.36c-1.37.71-2.75,1.42-4.23,2.13-.17,0-.29.15-.46.2a.18.18,0,0,1-.17,0c-1.77.8-3.59,1.6-5.53,2.4a2.71,2.71,0,0,0-.63.24,6.19,6.19,0,0,0-.62.25c-2.11.79-4.27,1.57-6.59,2.34a.67.67,0,0,1-.29.1,4.21,4.21,0,0,1-.62.19c-1.76.58-3.57,1.15-5.44,1.73l-3.06.85c-.11,0-.17,0-.22.1l-1.59.42c-1.19.33-2.43.65-3.73,1l-2.26.55-3,.68-.57.14a7.69,7.69,0,0,1-1,.23l-1.13.27c-2,.4-4,.86-6,1.26-.56.08-1.07.22-1.57.31-2.54.48-5.07,1-7.71,1.39l-.62.13a3.32,3.32,0,0,0-.73.08c-2.76.47-5.51.89-8.38,1.3-1.57.2-3.14.45-4.72.65-.5.08-1,.11-1.51.2-2.47.32-5,.64-7.58.89-2.13.23-4.26.46-6.45.68l-.84.12c-.17,0-.39,0-.61,0-4,.4-8.18.75-12.38,1-.62,0-1.29.1-1.9.12-1.8.13-3.64.26-5.49.34-2.4.15-4.92.3-7.38.4a5.65,5.65,0,0,1-1,.06,11.92,11.92,0,0,1-1.34,0c-1.34.05-2.62.09-4,.19-2.17.06-4.41.16-6.7.21-3.52.1-7.09.14-10.6.19-.23,0-.51,0-.73,0-.56,0-1.17,0-1.73,0-2.62,0-5.19,0-7.81,0-.83,0-1.72,0-2.56,0-.61,0-1.23,0-1.84,0a15.51,15.51,0,0,0-1.67,0c-2.57-.08-5.07-.09-7.58-.17h-.22c-.84,0-1.62,0-2.45-.07a3,3,0,0,1-.73,0c-3.12-.1-6.23-.21-9.29-.36-.34,0-.67,0-.95,0h-.11l-10.57-.54c-.84,0-1.67-.14-2.5-.18l-.67,0c-2.17-.17-4.34-.28-6.5-.44l-1-.05c-.89-.1-1.83-.15-2.77-.25-1.11-.12-2.28-.18-3.39-.29s-1.94-.15-3-.21c-.44,0-.94-.1-1.44-.13-.83-.09-1.66-.14-2.44-.23-2-.22-4.11-.38-6.16-.6-.67-.09-1.33-.12-2-.21s-1.27-.12-1.88-.21c-2.11-.22-4.22-.44-6.27-.71l-2.38-.29c-.45,0-.83-.1-1.28-.12-.22,0-.38-.07-.61-.09-2.1-.27-4.21-.54-6.26-.82l-2.38-.29a1.77,1.77,0,0,0-.55-.08c-1.5-.24-2.94-.43-4.38-.67l-5.25-.77a.31.31,0,0,1-.22-.07,8.22,8.22,0,0,1-1.28-.18c-2.76-.47-5.47-.89-8.13-1.36-.33-.07-.72-.09-1-.16-.66-.15-1.27-.24-1.93-.38-2.32-.4-4.64-.85-7-1.31-.61-.14-1.21-.23-1.77-.31a3.56,3.56,0,0,0-.72-.15,1.43,1.43,0,0,0-.49-.13l-9.6-2c-.06,0-.06-.06-.11-.06h-.06c-1.1-.22-2.2-.5-3.31-.72q-3.46-.86-6.77-1.69a9.68,9.68,0,0,1-1.27-.29c-.33-.07-.65-.2-1-.27-3.63-.91-7.21-1.87-10.67-2.89a2.12,2.12,0,0,0-.55-.14c-.77-.26-1.48-.46-2.25-.72l-4-1.21-.72-.2c-.71-.21-1.42-.47-2.19-.73-1.26-.4-2.47-.85-3.67-1.25-.39-.13-.72-.2-1-.33l-1.53-.58c-1.48-.52-3-1-4.38-1.62-.22-.07-.43-.13-.6-.2-.6-.25-1.26-.45-1.8-.7-1.42-.58-2.84-1.15-4.21-1.78-.71-.26-1.36-.57-2-.83-1.8-.76-3.49-1.57-5.12-2.38a3.2,3.2,0,0,1-.65-.31c-1.85-.88-3.59-1.8-5.27-2.72-.49-.25-.92-.55-1.41-.86-1.14-.61-2.27-1.28-3.36-1.95-.53-.36-1.07-.73-1.56-1.09s-1-.6-1.45-1l-1.3-.91-1.45-1.07c-.86-.66-1.66-1.37-2.46-2-.37-.35-.75-.65-1.12-1-1.06-1-2.07-2-3-3-4-4.67-5.89-9.22-5.72-13.62l3.33-74.78a9.38,9.38,0,0,0,.08,1.73,12.05,12.05,0,0,0,.43,2.48,19.22,19.22,0,0,0,2.09,5c.51.86,1.08,1.67,1.71,2.54a17.94,17.94,0,0,0,1.41,1.74,18.19,18.19,0,0,0,1.43,1.53c.48.47,1,.94,1.54,1.47a8.4,8.4,0,0,0,1.12,1c.8.66,1.61,1.37,2.46,2l1.45,1.07c.6.42,1.19.85,1.78,1.21a10.43,10.43,0,0,0,1,.66c.49.36,1,.72,1.57,1.09,1.08.67,2.21,1.34,3.35,1.95.49.31.92.61,1.41.86.81.48,1.68.92,2.55,1.35.7.43,1.52.81,2.28,1.18l2.46,1.13c1.08.56,2.22,1.12,3.48,1.63,2.07.94,4.26,1.83,6.5,2.73.43.19,1,.38,1.47.58.28.06.55.19.83.26v.06c.06,0,.06,0,.12,0,1.42.58,2.9,1.1,4.37,1.62.88.32,1.7.64,2.58.91,1.21.4,2.41.85,3.67,1.25.88.32,1.81.59,2.69.86a.31.31,0,0,0,.22.07l4,1.2c.94.28,1.87.6,2.8.87,2.15.61,4.29,1.23,6.49,1.84l3.19.83c.56.09,1.05.22,1.6.36l.83.21a4,4,0,0,0,.82.21l5,1.26c.72.21,1.49.36,2.26.51,1.38.35,2.76.64,4.19.94l4.14.88,4.25.89,1,.21c.67.09,1.33.24,1.94.38l2.2.45,3.87.7,3.93.7c2.65.47,5.36.94,8.12,1.36,2.38.41,4.82.75,7.25,1.1,2.22.34,4.49.68,6.76,1,1.83.2,3.65.46,5.48.73.44.07.89.1,1.33.18,1.22.11,2.5.29,3.77.41,3.33.45,6.71.79,10.15,1.13,2,.22,4.11.38,6.16.6,1.61.14,3.16.33,4.78.41.83.1,1.71.2,2.55.24,4.5.34,9,.68,13.61,1l.45,0c.89,0,1.77.15,2.66.19l10.13.52c.33,0,.61,0,1,0h0c4.4.23,8.8.34,13.25.46s9.08.18,13.66.14c2.73,0,5.4.05,8.14,0l12.22-.22c2.4,0,4.81-.14,7.21-.24l3.47-.16c3-.07,6-.25,8.83-.44l1.4-.09c1.68-.09,3.35-.17,5-.31,1.84-.07,3.63-.2,5.43-.39,2.4-.16,4.76-.37,7.11-.58l1.18-.11,2-.23c2.35-.22,4.65-.49,7-.71v-.05h.17l1-.12c1.68-.14,3.36-.33,5-.58.78-.07,1.63-.2,2.41-.32l5.23-.74c1.29-.16,2.53-.37,3.76-.53.06-.05.12-.05.23-.05l3.88-.63c.45,0,.9-.13,1.35-.21,2.64-.43,5.17-.91,7.71-1.39.5-.09,1-.23,1.52-.32,2.08-.39,4.12-.85,6.09-1.25.73-.18,1.41-.32,2.09-.5a7.6,7.6,0,0,1,1.12-.22v-.06l2.53-.54c.79-.18,1.53-.37,2.26-.55,1.3-.33,2.55-.65,3.79-1l1.7-.41c1.24-.33,2.43-.71,3.62-1q2.55-.8,4.93-1.59c.29-.1.63-.19.91-.29,2.27-.78,4.49-1.56,6.59-2.34a8.12,8.12,0,0,0,1.25-.49c1-.4,1.94-.8,2.85-1.2s1.83-.8,2.68-1.2a2.71,2.71,0,0,0,.63-.24q2.82-1.29,5.33-2.74c.69-.41,1.37-.77,2.06-1.18a7.66,7.66,0,0,0,.92-.57,11.06,11.06,0,0,0,1-.62,2.55,2.55,0,0,0,.47-.31,3.89,3.89,0,0,0,.8-.51l.75-.52c.52-.37,1-.73,1.45-1.1l.87-.63a22.52,22.52,0,0,0,2.57-2.21,1.49,1.49,0,0,0,.3-.32,7.66,7.66,0,0,0,.64-.63c.18-.22.41-.43.59-.64a11,11,0,0,0,1.07-1.28l.54-.65a23.91,23.91,0,0,0,1.45-2.21,1.1,1.1,0,0,1,.23-.27.48.48,0,0,1,.13-.21c.06-.11.12-.16.12-.27a3.39,3.39,0,0,0,.38-.88.87.87,0,0,0,.13-.32,8.57,8.57,0,0,0,.44-1,5.81,5.81,0,0,0,.27-1c.14-.44.22-.93.35-1.37a4,4,0,0,0,.17-1.17Z" class="colorf4ad2e svgShape"/><path fill="#f4ad2e" d="M1219.8 2258.26l-3.83 74.81c-.6-.25-1.26-.45-1.8-.7-1.42-.58-2.84-1.15-4.21-1.78-.71-.26-1.36-.57-2-.83-1.8-.76-3.49-1.57-5.12-2.38a3.2 3.2 0 01-.65-.31c-1.85-.88-3.59-1.8-5.27-2.72-.49-.25-.92-.55-1.41-.86-1.14-.61-2.27-1.28-3.36-1.95-.53-.36-1.07-.73-1.56-1.09s-1-.6-1.45-1l3.81-74.65a10.43 10.43 0 001 .66c.49.36 1 .72 1.57 1.09 1.08.67 2.21 1.34 3.35 1.95.49.31.92.61 1.41.86.81.48 1.68.92 2.55 1.35 1.46.8 3.1 1.56 4.74 2.31 1.08.56 2.22 1.12 3.48 1.63 2.07.94 4.26 1.83 6.5 2.73C1218.21 2257.73 1219 2258 1219.8 2258.26zM1260.39 2270.32l-3.83 74.87q-3.46-.86-6.77-1.69a9.68 9.68 0 01-1.27-.29c-.33-.07-.65-.2-1-.27-3.63-.91-7.21-1.87-10.67-2.89a2.12 2.12 0 00-.55-.14c-.77-.26-1.48-.46-2.25-.72l-4-1.21-.72-.2 3.83-74.82a.31.31 0 00.22.07l4 1.2c.94.28 1.87.6 2.8.87 2.15.61 4.29 1.23 6.49 1.84 1.54.41 3.19.78 4.79 1.19a16.63 16.63 0 001.65.42l5 1.26C1258.85 2270 1259.62 2270.17 1260.39 2270.32zM1301.27 2277.93l-3.83 74.87-5.25-.77a.31.31 0 01-.22-.07 8.22 8.22 0 01-1.28-.18c-2.76-.47-5.47-.89-8.13-1.36-.33-.07-.72-.09-1-.16-.66-.15-1.27-.24-1.93-.38-2.32-.4-4.64-.85-7-1.31-.61-.14-1.21-.23-1.77-.31a3.56 3.56 0 00-.72-.15l3.83-74.87c.67.09 1.33.24 1.94.38l6.07 1.15 3.93.7c2.65.47 5.36.94 8.12 1.36C1296.4 2277.24 1298.84 2277.58 1301.27 2277.93zM1342.25 2282.59l-3.83 74.87c-1-.05-1.94-.15-3-.21-.44 0-.94-.1-1.44-.13-.83-.09-1.66-.14-2.44-.23-2-.22-4.11-.38-6.16-.6-.67-.09-1.33-.12-2-.21s-1.27-.12-1.88-.21c-2.11-.22-4.22-.44-6.27-.71l-2.38-.29c-.45 0-.83-.1-1.28-.12-.22 0-.38-.07-.61-.09l3.83-74.86c1.22.11 2.5.29 3.77.41 3.33.45 6.71.79 10.15 1.13 2 .22 4.11.38 6.16.6C1337.36 2282.17 1339.8 2282.41 1342.25 2282.59zM1383.35 2284.75l-3.83 74.92h-.22c-.84 0-1.62 0-2.45-.07a3 3 0 01-.73 0c-3.12-.1-6.23-.21-9.29-.36-.34 0-.67 0-.95 0h-.11l-10.57-.54c-.84 0-1.67-.14-2.5-.18l-.67 0 3.83-74.92h.28c.95.05 1.89.15 2.83.2l10.13.52c.33 0 .67 0 1 0C1374.5 2284.52 1378.9 2284.63 1383.35 2284.75zM1424.58 2284.46l-3.84 75c-2.17.06-4.41.16-6.7.21-3.52.1-7.09.14-10.6.19-.23 0-.51 0-.73 0-.56 0-1.17 0-1.73 0-2.62 0-5.19 0-7.81 0l3.84-75c6.74.07 13.55 0 20.36-.19C1419.77 2284.66 1422.18 2284.56 1424.58 2284.46zM1466 2281.44l-3.84 75c-2.13.23-4.26.46-6.45.68l-.84.12c-.17 0-.39 0-.61 0-4 .4-8.18.75-12.38 1-.62 0-1.29.1-1.9.12-1.8.13-3.64.26-5.49.34l3.84-75c1.68-.09 3.35-.17 5-.31 1.84-.07 3.63-.2 5.43-.39 2.4-.16 4.76-.37 7.11-.58l3.2-.34C1461.35 2281.93 1463.65 2281.66 1466 2281.44zM1507.51 2274.54l-3.83 75-.57.14a7.69 7.69 0 01-1 .23l-1.13.27c-2 .4-4 .86-6 1.26-.56.08-1.07.22-1.57.31-2.54.48-5.07 1-7.71 1.39l-.62.13a3.32 3.32 0 00-.73.08c-2.76.47-5.51.89-8.38 1.3l3.84-75c1.29-.16 2.53-.37 3.76-.53.06-.05.12-.05.23-.05l3.88-.63c.45 0 .9-.13 1.35-.21 2.64-.43 5.17-.91 7.71-1.39.5-.09 1-.23 1.52-.32 2.08-.39 4.12-.85 6.09-1.25.73-.18 1.41-.32 2.09-.5A7.6 7.6 0 011507.51 2274.54zM1549.57 2259.06l-3.84 75.26c-.81.52-1.62 1-2.48 1.44a1.74 1.74 0 01-.46.25 3.09 3.09 0 01-.63.36c-1.37.71-2.75 1.42-4.23 2.13-.17 0-.29.15-.46.2a.18.18 0 01-.17 0c-1.77.8-3.59 1.6-5.53 2.4a2.71 2.71 0 00-.63.24 6.19 6.19 0 00-.62.25c-2.11.79-4.27 1.57-6.59 2.34a.67.67 0 01-.29.1 4.21 4.21 0 01-.62.19c-1.76.58-3.57 1.15-5.44 1.73l3.84-75.09q2.55-.8 4.93-1.59c.29-.1.63-.19.91-.29 2.27-.78 4.49-1.56 6.59-2.34a8.12 8.12 0 001.25-.49c1-.4 1.94-.8 2.85-1.2s1.83-.8 2.68-1.2a2.71 2.71 0 00.63-.24q2.82-1.29 5.33-2.74c.69-.41 1.37-.77 2.06-1.18A7.66 7.66 0 001549.57 2259.06z" class="colorf4ad2e svgShape"/><path fill="#f4ad2e" d="M1561,2315.08l0,.61a15.45,15.45,0,0,1-.53,2.76c-.06.11,0,.28-.07.39s-.07.17-.07.22a20.28,20.28,0,0,1-1.2,2.78.25.25,0,0,0-.07.17,1.62,1.62,0,0,0-.29.37,23.91,23.91,0,0,1-1.45,2.21,1.38,1.38,0,0,0-.25.38c-.11.11-.18.22-.29.27a23.32,23.32,0,0,1-2.31,2.56v0a3.09,3.09,0,0,1-.29.21,24.9,24.9,0,0,1-2.57,2.27l-.35.31-.52.31a30.81,30.81,0,0,1-3,2.13c-.11.11-.17.22-.34.26,0,.06-.06.06-.12,0-.46.32-1,.62-1.49.93-.81.52-1.62,1-2.48,1.44a1.74,1.74,0,0,1-.46.25,3.09,3.09,0,0,1-.63.36c-1.37.71-2.75,1.42-4.23,2.13-.17,0-.29.15-.46.2a.18.18,0,0,1-.17,0c-1.77.8-3.59,1.6-5.53,2.4a2.71,2.71,0,0,0-.63.24,6.19,6.19,0,0,0-.62.25c-2.11.79-4.27,1.57-6.59,2.34a.67.67,0,0,1-.29.1,4.21,4.21,0,0,1-.62.19c-1.76.58-3.57,1.15-5.44,1.73l-3.06.85c-.11,0-.17,0-.22.1l-1.59.42c-1.19.33-2.43.65-3.73,1l-2.26.55-3,.68-.57.14a7.69,7.69,0,0,1-1,.23l-1.13.27c-2,.4-4,.86-6,1.26-.56.08-1.07.22-1.57.31-2.54.48-5.07,1-7.71,1.39l-.62.13a3.32,3.32,0,0,0-.73.08c-2.76.47-5.51.89-8.38,1.3-1.57.2-3.14.45-4.72.65l-8.78-4.86-26.79-14.86-13.29-7.38-26.79-14.86-13.29-7.37-26.79-14.87-13.28-7.37-2.49-1.41L1313,2267.6l-78.79-43.74,89.78-33.72,31.5-11.83,5.74.13c9.25.19,18.42.66,27.48,1.29,4.62.29,9.12.64,13.62,1,9.32.81,18.47,1.83,27.39,3,4.6.57,9.09,1.19,13.57,1.86q14.21,2.16,27.3,4.91c4.64.91,9.16,1.92,13.57,3,9.75,2.29,18.82,4.81,27.1,7.58q7.17,2.3,13.47,4.87c11,4.36,20.11,9.17,26.82,14.26a43.23,43.23,0,0,1,7.09,6.44c4.33,4.9,6.14,9.74,5.63,14.34v.05Z" class="colorf4ad2e svgShape"/><path fill="#ffcc4d" d="M1624.26,2166.18v.05a4,4,0,0,1-.18,1.17c-.13.44-.21.93-.34,1.37a7,7,0,0,1-.28,1,7.75,7.75,0,0,1-.44,1,.72.72,0,0,1-.13.33,2.48,2.48,0,0,1-.38.88c0,.11-.06.16-.12.27a.38.38,0,0,0-.12.21,17.52,17.52,0,0,1-1.69,2.48,12,12,0,0,1-1.61,1.93c-.18.21-.41.42-.59.64a5,5,0,0,1-.94.95,22.52,22.52,0,0,1-2.57,2.21,14.5,14.5,0,0,1-2.31,1.73l-.76.52a16,16,0,0,1-2.25,1.5,4.54,4.54,0,0,1-.92.51c-.69.41-1.37.76-2.06,1.18q-2.5,1.46-5.33,2.74c-1,.5-2.17,1-3.31,1.44-.91.4-1.88.8-2.85,1.2a8.12,8.12,0,0,1-1.25.49c-2.1.78-4.32,1.56-6.59,2.34-.28.1-.62.19-.91.29-1.58.53-3.23,1.06-4.93,1.59-1.19.33-2.38.71-3.62,1l-1.7.41c-1.24.39-2.49.71-3.79,1-.73.18-1.47.37-2.26.55s-1.69.41-2.54.59a9.32,9.32,0,0,0-1.12.23c-.68.18-1.36.32-2.09.5-2,.4-4,.86-6.09,1.25-.5.09-1,.23-1.52.32-2.53.48-5.07,1-7.71,1.39-.45.08-.9.17-1.35.21l-3.88.63c-.11,0-.17,0-.23.05-1.23.21-2.47.37-3.76.59-1.69.24-3.43.49-5.23.68-.78.12-1.62.25-2.41.32-1.68.19-3.31.44-5,.58l-1,.12H1526l-.06.05c-2.92.36-5.89.65-9,.94l-1.18.11c-2.35.21-4.71.42-7.11.58-1.8.19-3.59.32-5.43.39-1.63.14-3.3.22-5,.31v.05a10.65,10.65,0,0,1-1.4,0c-2.85.19-5.82.37-8.83.44l-3.47.16c-2.4.1-4.81.2-7.21.24-4.07.13-8.15.14-12.22.22-2.73,0-5.41,0-8.14,0-4.58,0-9.15,0-13.66-.14s-8.85-.23-13.25-.46h0c-2.12,0-4.23-.16-6.35-.27-2.5-.13-5-.25-7.39-.43l-.45,0c-4.61-.3-9.11-.64-13.61-1-.83,0-1.72-.14-2.55-.24-1.62-.08-3.17-.27-4.78-.41-2.05-.22-4.11-.38-6.16-.6-3.44-.34-6.82-.68-10.15-1.13-1.27-.12-2.55-.3-3.77-.41-.44-.08-.88-.11-1.33-.18-1.82-.27-3.65-.53-5.48-.73-2.27-.28-4.54-.62-6.76-1-2.43-.35-4.87-.7-7.25-1.1-2.76-.42-5.47-.89-8.12-1.36l-3.93-.7-3.86-.7c-1.44-.3-2.77-.53-4.15-.77v-.06l-1-.21-4.25-.89-4.14-.88c-1.43-.3-2.81-.59-4.19-.94-.77-.15-1.54-.3-2.26-.51l-5-1.26a4.12,4.12,0,0,1-.82-.21c-.83-.15-1.6-.36-2.43-.57l-3.19-.83c-2.2-.61-4.34-1.23-6.49-1.84-.93-.27-1.86-.59-2.8-.87l-3.95-1.2a.31.31,0,0,1-.22-.07c-.88-.27-1.81-.54-2.69-.86-1.26-.4-2.46-.85-3.67-1.25-.88-.27-1.7-.59-2.57-.91-1.48-.52-3-1-4.38-1.62-.06,0-.06,0-.11,0a3.76,3.76,0,0,1-.82-.32c-.5-.19-1-.38-1.48-.57-2.24-.9-4.43-1.79-6.5-2.73s-4-1.83-5.94-2.76c-.76-.37-1.57-.75-2.28-1.18-.87-.43-1.74-.87-2.55-1.35-.49-.25-.92-.55-1.41-.86-1.14-.61-2.27-1.29-3.35-1.95-.87-.55-1.73-1.1-2.54-1.64a13.58,13.58,0,0,1-1.77-1.32l-1.46-1.07c-.85-.66-1.65-1.37-2.46-2a8.4,8.4,0,0,1-1.12-1c-.53-.53-1.06-1-1.54-1.48a16.7,16.7,0,0,1-1.43-1.52,19.57,19.57,0,0,1-1.41-1.74c-.63-.87-1.2-1.68-1.71-2.55a16.08,16.08,0,0,1-2.09-5,12.77,12.77,0,0,1-.43-2.48,9.38,9.38,0,0,1-.08-1.73v-.17c.32-7.46,6.54-14.5,17.67-20.62,7.34-4,16.79-7.73,28.11-10.95,4.36-1.22,8.93-2.33,13.84-3.41q12.78-2.86,27.8-4.94,6.66-.91,13.8-1.64c8.75-.94,18-1.7,27.67-2.21,4.47-.27,9.06-.48,13.69-.58,1.45-.09,2.91-.13,4.41-.16,7.71-.22,15.47-.27,23.16-.21,2.62,0,5.29,0,7.91.12l5.74.13c9.25.19,18.42.66,27.48,1.29,4.62.29,9.12.64,13.62,1,9.32.81,18.47,1.83,27.4,3,4.6.57,9.08,1.19,13.56,1.86q14.21,2.16,27.3,4.91c4.64.91,9.16,1.92,13.57,3,9.75,2.29,18.83,4.81,27.11,7.58q7.15,2.3,13.47,4.87c11,4.36,20.1,9.17,26.82,14.26a43.55,43.55,0,0,1,7.08,6.44C1623,2156.74,1624.77,2161.58,1624.26,2166.18Z" class="colorffcc4d svgShape"/><path fill="#f4ad2e" d="M1583,2164.23a5.11,5.11,0,0,1-.13.91c-.11.35-.17.74-.28,1.08a2.45,2.45,0,0,1-.21.78,4.81,4.81,0,0,1-.35.77c0,.09,0,.18-.1.26a1.86,1.86,0,0,1-.3.69,1.69,1.69,0,0,0-.19.38,14,14,0,0,1-1.33,2,9,9,0,0,1-1.26,1.52,2.17,2.17,0,0,1-.47.5,3.5,3.5,0,0,1-.74.75,17.64,17.64,0,0,1-2,1.74,11.5,11.5,0,0,1-1.82,1.36,2,2,0,0,1-.59.41,12.67,12.67,0,0,1-1.77,1.18,4.26,4.26,0,0,1-.73.4c-.54.32-1.08.6-1.62.93a46.9,46.9,0,0,1-4.19,2.15c-.81.4-1.71.79-2.61,1.14-.71.31-1.48.63-2.24.94a7.15,7.15,0,0,1-1,.39q-4.5,1.74-9.78,3.31c-.94.26-1.87.57-2.85.82-1.43.41-2.85.78-4.32,1.14l-1.77.44c-.67.18-1.34.33-2,.47-.85.22-1.69.39-2.53.57-3.82.86-7.85,1.62-12.06,2.32-1.41.28-2.83.47-4.29.7-1,.17-1.94.3-3,.47-1.33.19-2.7.39-4.11.53l-1.32.2c-1.51.19-3,.37-4.55.51a2.71,2.71,0,0,1-.84.09l0,0c-5.7.63-11.65,1.21-17.85,1.59-1.28.11-2.6.17-3.92.24v0a8,8,0,0,1-1.1,0c-3.17.19-6.38.38-9.68.47-1.89.08-3.78.16-5.67.2-3.47.08-6.94.13-10.41.17-1.88,0-3.73,0-5.61,0-3.6,0-7.2,0-10.75-.11s-7-.18-10.46-.36c-1.67,0-3.33-.12-5-.21-2-.1-3.9-.2-5.82-.34l-.35,0c-3.63-.23-7.17-.5-10.71-.76-1.93-.15-3.85-.33-5.77-.52-1.61-.17-3.23-.3-4.84-.47-1.36-.15-2.71-.27-4-.42-2.31-.25-4.62-.54-6.94-.79a11.53,11.53,0,0,0-1.3-.16c-1.35-.2-2.7-.4-4.06-.56-1.78-.22-3.57-.49-5.31-.75-1.92-.28-3.83-.55-5.7-.86-2.18-.33-4.31-.71-6.4-1.08s-4.13-.73-6.13-1.1c-1.13-.23-2.17-.42-3.26-.61v0c-2.52-.48-5-1-7.38-1.56-1.12-.23-2.21-.47-3.29-.74-.61-.12-1.22-.24-1.78-.4-2.21-.51-4.38-1.06-6.5-1.6-2.6-.71-5.15-1.36-7.61-2.1-1.82-.53-3.59-1.06-5.32-1.64,0,0-.13,0-.17,0-.69-.21-1.43-.42-2.12-.68-2.93-.94-5.69-1.91-8.36-3,0,0,0,0-.08,0a2.68,2.68,0,0,1-.73-.3c-1.25-.46-2.5-1-3.7-1.47-2.54-1.05-4.94-2.13-7.16-3.26-.6-.29-1.24-.59-1.8-.92s-1.37-.69-2-1.07c-1.32-.73-2.55-1.45-3.74-2.21-.68-.43-1.36-.86-2-1.29a11.65,11.65,0,0,1-1.39-1l-1.15-.85c-.67-.52-1.3-1.08-1.93-1.59-.3-.24-.59-.52-.88-.79-.42-.42-.84-.79-1.22-1.16s-.79-.79-1.12-1.2a14.51,14.51,0,0,1-1.11-1.37c-.5-.69-1-1.33-1.35-2a12.68,12.68,0,0,1-1.64-3.9,9.61,9.61,0,0,1-.34-1.95,6.43,6.43,0,0,1-.06-1.37c.21-5.91,5.1-11.49,13.91-16.35a107.89,107.89,0,0,1,22.11-8.61c3.43-1,7-1.84,10.89-2.69,6.7-1.5,14-2.8,21.87-3.89q5.23-.71,10.86-1.28c6.88-.75,14.15-1.34,21.77-1.74,3.52-.22,7.12-.38,10.77-.46,1.14-.07,2.28-.1,3.47-.13,6.06-.17,12.17-.21,18.22-.16,3.59,0,7.19.1,10.74.19,7.27.16,14.49.53,21.62,1,3.63.23,7.17.5,10.71.77,7.34.64,14.54,1.44,21.56,2.33,3.61.45,7.14.94,10.67,1.47q11.17,1.68,21.48,3.86c3.65.71,7.2,1.51,10.67,2.34,7.67,1.8,14.81,3.79,21.33,6,3.75,1.21,7.28,2.48,10.59,3.84,8.69,3.43,15.82,7.21,21.1,11.21a34.85,34.85,0,0,1,5.58,5.07C1582,2156.76,1583.42,2160.61,1583,2164.23Z" class="colorf4ad2e svgShape"/><path fill="#f4ad2e" d="M1621,2240.35l0,.61a15.65,15.65,0,0,1-.54,2.76c-.06.11,0,.28-.07.39s-.07.16-.07.22a19.12,19.12,0,0,1-1.2,2.78.2.2,0,0,0-.06.17,1.44,1.44,0,0,0-.3.37,23.91,23.91,0,0,1-1.45,2.21,1.66,1.66,0,0,0-.25.38c-.11.11-.17.22-.29.27a24.13,24.13,0,0,1-2.3,2.56v0a2.17,2.17,0,0,1-.29.21,24.9,24.9,0,0,1-2.57,2.27l-.35.31-.51.31a32.07,32.07,0,0,1-3,2.13c-.12.11-.18.22-.35.26,0,.06-.06.06-.12,0-.46.31-1,.62-1.49.93-.81.52-1.62,1-2.48,1.44a2,2,0,0,1-.45.25,3.44,3.44,0,0,1-.64.36c-1.37.71-2.75,1.42-4.23,2.13-.17,0-.29.15-.46.19a.19.19,0,0,1-.17.05c-1.77.8-3.59,1.6-5.53,2.4a2.89,2.89,0,0,0-.63.24c-.16,0-.39.15-.62.25-2.11.78-4.26,1.57-6.59,2.34a.63.63,0,0,1-.28.1,4.7,4.7,0,0,1-.63.19c-1.76.58-3.57,1.15-5.44,1.73l-3.06.85c-.11,0-.17,0-.22.1-.51.14-1.08.27-1.59.42-1.18.33-2.43.65-3.73,1l-2.26.55-3,.68-.57.14a7.69,7.69,0,0,1-1,.23l-1.13.27c-2,.4-4,.86-6,1.26-.57.08-1.07.22-1.58.31-2.54.48-5.07,1-7.71,1.39l-.62.13a3.32,3.32,0,0,0-.73.08c-2.76.47-5.51.88-8.38,1.3-1.57.19-3.14.45-4.72.65-.5.08-1,.11-1.51.2-2.47.32-5,.64-7.58.89-2.13.23-4.26.46-6.44.68l-.85.12c-.16,0-.39,0-.61,0-4,.4-8.18.75-12.38,1-.61,0-1.29.1-1.9.12-1.79.13-3.64.26-5.48.34-2.41.15-4.93.3-7.39.4a5.6,5.6,0,0,1-1,.06,12.18,12.18,0,0,1-1.35,0c-1.34.05-2.62.09-4,.19-2.18.06-4.42.16-6.71.21-3.52.1-7.09.14-10.6.19-.22,0-.51,0-.73,0-.56,0-1.17,0-1.73,0-2.62,0-5.19,0-7.81,0-.83,0-1.72,0-2.56,0-.61,0-1.23,0-1.84,0a15.51,15.51,0,0,0-1.67,0c-2.56-.08-5.07-.09-7.58-.17h-.22c-.84,0-1.62,0-2.45-.07a3,3,0,0,1-.73,0c-3.12-.1-6.23-.21-9.29-.36-.34,0-.67,0-1,0h-.11l-10.57-.54c-.83,0-1.67-.14-2.5-.18l-.67,0c-2.16-.17-4.33-.28-6.5-.44l-1-.05c-.88-.1-1.83-.15-2.77-.26-1.11-.11-2.28-.17-3.39-.28s-1.94-.16-2.94-.21c-.45,0-1-.1-1.45-.13-.83-.09-1.66-.14-2.44-.23-2-.22-4.11-.38-6.16-.6-.66-.09-1.33-.12-2-.21s-1.27-.12-1.88-.21c-2.11-.22-4.22-.44-6.27-.71l-2.38-.29c-.45,0-.83-.1-1.28-.12-.22,0-.38-.07-.61-.09l-6.26-.82-2.38-.29a1.77,1.77,0,0,0-.55-.08c-1.5-.24-2.94-.43-4.37-.67l-5.26-.77a.31.31,0,0,1-.22-.07,8.22,8.22,0,0,1-1.28-.18c-2.76-.47-5.47-.89-8.12-1.36-.33-.07-.72-.09-1.06-.16-.66-.15-1.27-.24-1.93-.38-2.32-.4-4.64-.85-7-1.31-.6-.14-1.21-.23-1.77-.31a3.62,3.62,0,0,0-.71-.15,1.54,1.54,0,0,0-.5-.13l-9.6-2c-.06,0,0-.06-.11-.06h-.05c-1.11-.22-2.21-.5-3.31-.72l-6.78-1.69a9.68,9.68,0,0,1-1.27-.29c-.33-.07-.65-.2-1-.27-3.63-.91-7.21-1.87-10.67-2.89a2.12,2.12,0,0,0-.55-.14c-.77-.26-1.48-.46-2.25-.73l-4-1.2-.71-.2c-.72-.21-1.43-.47-2.2-.73-1.26-.4-2.46-.85-3.67-1.25-.38-.13-.72-.2-1-.33-.55-.2-1-.39-1.54-.58-1.48-.52-3-1-4.37-1.62-.22-.07-.44-.13-.61-.2-.6-.25-1.26-.45-1.8-.7-1.42-.58-2.84-1.15-4.21-1.78-.71-.26-1.36-.57-2-.83-1.8-.76-3.49-1.57-5.12-2.38a3.84,3.84,0,0,1-.65-.31c-1.85-.88-3.59-1.8-5.27-2.72-.49-.25-.92-.55-1.41-.86-1.14-.61-2.27-1.28-3.35-2-.54-.37-1.08-.73-1.57-1.09s-1-.6-1.45-1l-1.3-.91c-.48-.36-1-.72-1.45-1.07-.85-.66-1.65-1.37-2.46-2-.37-.35-.75-.65-1.12-1-1.06-1-2.07-2-3-3-4-4.67-5.88-9.22-5.71-13.62l3.32-74.78a9.38,9.38,0,0,0,.08,1.73,12.77,12.77,0,0,0,.43,2.48,19.16,19.16,0,0,0,2.09,5c.51.87,1.08,1.68,1.71,2.55a19.57,19.57,0,0,0,1.41,1.74,16.7,16.7,0,0,0,1.43,1.52c.48.48,1,.95,1.54,1.48a8.4,8.4,0,0,0,1.12,1c.81.66,1.61,1.37,2.46,2l1.46,1.07c.59.42,1.18.84,1.78,1.21a9.15,9.15,0,0,0,1,.66c.49.36,1,.72,1.57,1.09,1.08.66,2.21,1.34,3.35,1.95.49.31.92.61,1.41.86.81.48,1.68.92,2.55,1.35.71.43,1.52.81,2.28,1.18l2.46,1.13c1.08.56,2.22,1.12,3.48,1.63,2.07.94,4.26,1.83,6.5,2.73.43.19,1,.38,1.48.57.27.07.54.2.82.27v0c0,.06,0,.06.11,0,1.42.58,2.9,1.1,4.38,1.62.87.32,1.69.64,2.57.91,1.21.4,2.41.85,3.67,1.25.88.32,1.81.59,2.69.86a.31.31,0,0,0,.22.07l3.95,1.2c.94.28,1.87.6,2.8.87,2.15.61,4.29,1.23,6.49,1.84l3.19.83c.56.09,1.05.22,1.6.36l.83.21a4.12,4.12,0,0,0,.82.21l5,1.26c.72.21,1.49.36,2.26.51,1.38.35,2.76.64,4.19.94l4.14.88,4.25.89,1,.21c.67.09,1.33.24,1.94.38l2.21.45,3.86.7,3.93.7c2.65.47,5.36.94,8.12,1.36,2.38.4,4.82.75,7.25,1.1,2.22.34,4.49.68,6.76,1,1.83.2,3.66.46,5.48.73.45.07.89.1,1.33.18,1.22.11,2.5.29,3.77.41,3.33.45,6.71.79,10.15,1.13,2,.22,4.11.38,6.16.6,1.61.14,3.16.33,4.78.41.83.1,1.72.2,2.55.24,4.5.34,9,.68,13.61,1l.45,0c.89,0,1.78.15,2.66.19l10.13.52c.33,0,.61,0,1,0h0c4.4.23,8.8.34,13.25.46s9.08.18,13.66.14c2.73,0,5.41.05,8.14,0l12.22-.22c2.4,0,4.81-.14,7.21-.24l3.47-.16c3-.07,6-.25,8.83-.44l1.4-.09c1.68-.09,3.35-.17,5-.31,1.84-.07,3.63-.2,5.43-.39,2.4-.16,4.76-.37,7.11-.58l1.18-.11,2-.23c2.35-.22,4.65-.49,7-.71v-.05h.17l1-.12c1.68-.14,3.36-.33,5-.58.79-.07,1.63-.2,2.41-.32l5.23-.74c1.29-.16,2.53-.37,3.76-.53.06-.06.12-.05.23-.05l3.88-.63c.45,0,.9-.13,1.35-.21,2.64-.43,5.18-.91,7.71-1.39.51-.09,1-.23,1.52-.32,2.09-.39,4.12-.85,6.09-1.25.73-.18,1.41-.32,2.09-.5a9.32,9.32,0,0,1,1.12-.23v-.05l2.53-.54c.79-.18,1.53-.37,2.26-.55,1.3-.33,2.55-.65,3.79-1l1.7-.41c1.24-.33,2.43-.71,3.62-1,1.7-.53,3.35-1.06,4.93-1.59.29-.1.63-.19.91-.29,2.27-.78,4.49-1.56,6.59-2.34a8.12,8.12,0,0,0,1.25-.49c1-.4,1.94-.8,2.85-1.2s1.83-.8,2.68-1.2a2.71,2.71,0,0,0,.63-.24q2.82-1.29,5.33-2.74c.69-.42,1.37-.77,2.06-1.18a7,7,0,0,0,.92-.57,9.77,9.77,0,0,0,1-.62,2.55,2.55,0,0,0,.47-.31,3.89,3.89,0,0,0,.8-.51l.76-.52c.52-.37,1-.73,1.45-1.1l.86-.63a22.52,22.52,0,0,0,2.57-2.21,1.27,1.27,0,0,0,.3-.32,7.66,7.66,0,0,0,.64-.63c.18-.22.41-.43.59-.64a10.08,10.08,0,0,0,1.07-1.28l.54-.65a23.91,23.91,0,0,0,1.45-2.21,1,1,0,0,1,.24-.27.38.38,0,0,1,.12-.21c.06-.11.12-.16.12-.27a3.39,3.39,0,0,0,.38-.88.72.72,0,0,0,.13-.33,7.75,7.75,0,0,0,.44-1,7,7,0,0,0,.28-1c.13-.44.21-.93.34-1.37a4,4,0,0,0,.18-1.17Z" class="colorf4ad2e svgShape"/><path fill="#f4ad2e" d="M1279.78 2183.53l-3.83 74.81c-.6-.25-1.26-.45-1.8-.7-1.42-.58-2.84-1.15-4.21-1.78-.71-.26-1.36-.57-2-.83-1.8-.76-3.49-1.57-5.12-2.38a3.84 3.84 0 01-.65-.31c-1.85-.88-3.59-1.8-5.27-2.72-.49-.25-.92-.55-1.41-.86-1.14-.61-2.27-1.28-3.35-2-.54-.37-1.08-.73-1.57-1.09s-1-.6-1.45-1l3.82-74.65a9.15 9.15 0 001 .66c.49.36 1 .72 1.57 1.09 1.08.66 2.21 1.34 3.35 1.95.49.31.92.61 1.41.86.81.48 1.68.92 2.55 1.35 1.47.8 3.1 1.56 4.74 2.31 1.08.56 2.22 1.12 3.48 1.63 2.07.94 4.26 1.83 6.5 2.73C1278.19 2183 1279 2183.27 1279.78 2183.53zM1320.37 2195.59l-3.82 74.87-6.78-1.69a9.68 9.68 0 01-1.27-.29c-.33-.07-.65-.2-1-.27-3.63-.91-7.21-1.87-10.67-2.89a2.12 2.12 0 00-.55-.14c-.77-.26-1.48-.46-2.25-.73l-4-1.2-.71-.2 3.82-74.82a.31.31 0 00.22.07l3.95 1.2c.94.28 1.87.6 2.8.87 2.15.61 4.29 1.23 6.49 1.84 1.54.41 3.2.78 4.79 1.19a16.63 16.63 0 001.65.42l5 1.26C1318.83 2195.29 1319.6 2195.44 1320.37 2195.59zM1361.25 2203.2l-3.82 74.87-5.26-.77a.31.31 0 01-.22-.07 8.22 8.22 0 01-1.28-.18c-2.76-.47-5.47-.89-8.12-1.36-.33-.07-.72-.09-1.06-.16-.66-.15-1.27-.24-1.93-.38-2.32-.4-4.64-.85-7-1.31-.6-.14-1.21-.23-1.77-.31a3.62 3.62 0 00-.71-.15l3.82-74.87c.67.09 1.33.24 1.94.38L1342 2200l3.93.7c2.65.47 5.36.94 8.12 1.36C1356.38 2202.5 1358.82 2202.85 1361.25 2203.2zM1402.23 2207.86l-3.83 74.87c-1-.05-1.94-.16-2.94-.21-.45 0-1-.1-1.45-.13-.83-.09-1.66-.14-2.44-.23-2-.22-4.11-.38-6.16-.6-.66-.09-1.33-.12-2-.21s-1.27-.12-1.88-.21c-2.11-.22-4.22-.44-6.27-.71l-2.38-.29c-.45 0-.83-.1-1.28-.12-.22 0-.38-.07-.61-.09l3.83-74.86c1.22.11 2.5.29 3.77.41 3.33.45 6.71.79 10.15 1.13 2 .22 4.11.38 6.16.6C1397.34 2207.44 1399.79 2207.68 1402.23 2207.86zM1443.33 2210l-3.83 74.92h-.22c-.84 0-1.62 0-2.45-.07a3 3 0 01-.73 0c-3.12-.1-6.23-.21-9.29-.36-.34 0-.67 0-1 0h-.11l-10.57-.54c-.83 0-1.67-.14-2.5-.18l-.67 0 3.83-74.92h.28c1 .05 1.89.15 2.83.2l10.13.52c.33 0 .67 0 1 0C1434.48 2209.79 1438.88 2209.9 1443.33 2210zM1484.56 2209.73l-3.83 75c-2.18.06-4.42.16-6.71.21-3.52.1-7.09.14-10.6.19-.22 0-.51 0-.73 0-.56 0-1.17 0-1.73 0-2.62 0-5.19 0-7.81 0l3.84-75c6.74.07 13.55 0 20.36-.19C1479.75 2209.93 1482.16 2209.83 1484.56 2209.73zM1525.93 2206.71l-3.84 75c-2.13.23-4.26.46-6.44.68l-.85.12c-.16 0-.39 0-.61 0-4 .4-8.18.75-12.38 1-.61 0-1.29.1-1.9.12-1.79.13-3.64.26-5.48.34l3.83-75c1.68-.09 3.35-.17 5-.31 1.84-.07 3.63-.2 5.43-.39 2.4-.16 4.76-.37 7.11-.58l3.2-.34C1521.33 2207.2 1523.63 2206.93 1525.93 2206.71zM1567.49 2199.8l-3.83 75-.57.14a7.69 7.69 0 01-1 .23l-1.13.27c-2 .4-4 .86-6 1.26-.57.08-1.07.22-1.58.31-2.54.48-5.07 1-7.71 1.39l-.62.13a3.32 3.32 0 00-.73.08c-2.76.47-5.51.88-8.38 1.3l3.84-75c1.29-.16 2.53-.37 3.76-.53.06-.06.12-.05.23-.05l3.88-.63c.45 0 .9-.13 1.35-.21 2.64-.43 5.18-.91 7.71-1.39.51-.09 1-.23 1.52-.32 2.09-.39 4.12-.85 6.09-1.25.73-.18 1.41-.32 2.09-.5A9.32 9.32 0 011567.49 2199.8zM1609.55 2184.33l-3.84 75.26c-.81.52-1.62 1-2.48 1.44a2 2 0 01-.45.25 3.44 3.44 0 01-.64.36c-1.37.71-2.75 1.42-4.23 2.13-.17 0-.29.15-.46.19a.19.19 0 01-.17.05c-1.77.8-3.59 1.6-5.53 2.4a2.89 2.89 0 00-.63.24c-.16 0-.39.15-.62.25-2.11.78-4.26 1.57-6.59 2.34a.63.63 0 01-.28.1 4.7 4.7 0 01-.63.19c-1.76.58-3.57 1.15-5.44 1.73l3.84-75.09c1.7-.53 3.35-1.06 4.93-1.59.29-.1.63-.19.91-.29 2.27-.78 4.49-1.56 6.59-2.34a8.12 8.12 0 001.25-.49c1-.4 1.94-.8 2.85-1.2s1.83-.8 2.68-1.2a2.71 2.71 0 00.63-.24q2.82-1.29 5.33-2.74c.69-.42 1.37-.77 2.06-1.18A7 7 0 001609.55 2184.33z" class="colorf4ad2e svgShape"/><path fill="#f4ad2e" d="M1476.65,2429.75a181.27,181.27,0,0,0,1.53,27.58q1.14,8.65,3.09,17.06a182,182,0,0,0,17.41,45.93,182.6,182.6,0,0,0,142.59,94.93c100.55,10.13,190.27-63.18,200.39-163.72s-63.19-190.27-163.73-200.39a183.26,183.26,0,0,0-167.16,75.56,183.46,183.46,0,0,0-22.46,42q-2.83,7.56-5,15.45a182.55,182.55,0,0,0-5.36,27.22c-.14,1.15-.27,2.31-.39,3.47Q1476.79,2422.36,1476.65,2429.75Z" class="colorf4ad2e svgShape"/><circle cx="1692" cy="2436.11" r="182.98" fill="#ffcc4d" transform="rotate(-45 1691.997 2436.102)" class="colorffcc4d svgShape"/><circle cx="1690.05" cy="2435.91" r="152.4" fill="#f4ad2e" transform="rotate(-45 1690.055 2435.906)" class="colorf4ad2e svgShape"/><path fill="#f4ad2e" d="M1551.47 2285.59l34 1.74a183 183 0 0149-25l-35.59-1.82A183 183 0 001551.47 2285.59zM1510.77 2326.7l33.27 1.7a182.82 182.82 0 0123.37-26.3l-33.67-1.72A183.11 183.11 0 001510.77 2326.7zM1488.31 2368.73l32.86 1.69a180.16 180.16 0 0112.92-26.83l-33.1-1.69A179.51 179.51 0 001488.31 2368.73zM1477.93 2411.4l32.55 1.66a183.7 183.7 0 015.55-27.21l-32.74-1.67A182.55 182.55 0 001477.93 2411.4zM1476.65 2429.75a181.27 181.27 0 001.53 27.58l32.23 1.65a183.83 183.83 0 01-1.34-27.57zM1481.27 2474.39a180.35 180.35 0 008.88 28L1522 2504a182.36 182.36 0 01-8.65-27.94zM1498.68 2520.32a183.91 183.91 0 0019.07 28.47l31.35 1.6a183 183 0 01-18.72-28.44zM1537.09 2569.12a182.49 182.49 0 0044.83 29.8l29.46 1.5a182.33 182.33 0 01-43.34-29.71z" class="colorf4ad2e svgShape"/><path fill="#ffffff" d="M1687.35,2546.08l-2.38-26.53c-18.8.84-37.41-2.56-48.59-7.75l5.46-33.45c12.32,5.36,29.32,9.75,47.5,8.12,15.93-1.43,26.27-8.55,25.27-19.73-.95-10.62-10.5-16.53-31.81-21.66-30.8-7.38-52.47-19.52-54.9-46.62-2.21-24.6,13.4-45.43,42.77-54l-2.39-26.55,27.38-2.46,2.21,24.6c18.8-.84,31.73,1.94,41.35,5.58L1734,2378c-7.54-2.42-21-7.71-41.11-5.9-18.16,1.63-23.33,10-22.62,17.82.82,9.21,11.13,14.2,35.69,21,34.3,8.76,49.11,22.92,51.37,48.08,2.23,24.88-13.47,47.69-45.1,56.17l2.56,28.49Z" class="colorfff svgShape"/><polygon fill="#84bce2" points="1340.36 1388.12 1341.78 1388.12 1341.78 1850.07 2059.72 1850.07 2059.72 1388.12 1700.05 1098.38 1340.36 1388.12" class="color84bce2 svgShape"/><rect width="337.87" height="461.95" x="2059.72" y="1388.12" fill="#598dcc" class="color598dcc svgShape"/><polygon fill="#3f6bb6" points="2422.82 1388.11 2059.72 1388.11 1700.04 1047.37 2047.08 1047.37 2422.82 1388.11" class="color3f6bb6 svgShape"/><polygon fill="#2b3972" points="2059.72 1388.11 1700.04 1098.38 1340.35 1388.11 1296.02 1388.11 1700.04 1047.37 2102.39 1388.11 2059.72 1388.11" class="color2b3972 svgShape"/><polygon fill="#84bce2" points="2273.92 1850.07 2121.18 1850.07 2121.18 1510.68 2273.92 1596.38 2273.92 1850.07" class="color84bce2 svgShape"/><polygon fill="#3f6bb6" points="2273.92 1596.38 2422.82 1596.38 2270.08 1510.68 2117.34 1510.68 2273.92 1596.38" class="color3f6bb6 svgShape"/><rect width="133.53" height="253.7" x="2273.92" y="1596.38" fill="#598dcc" class="color598dcc svgShape"/><rect width="148.9" height="11.98" x="2273.92" y="1596.38" fill="#2b3972" class="color2b3972 svgShape"/><polygon fill="#2b3972" points="2273.92 1608.36 2117.34 1525.61 2117.34 1510.68 2273.92 1596.38 2273.92 1608.36" class="color2b3972 svgShape"/><rect width="81.77" height="213.41" x="2299.26" y="1636.66" fill="#2b3972" class="color2b3972 svgShape"/><path fill="#3f5988" d="M2454,1932.94H1296.14v-54a28.9,28.9,0,0,1,28.9-28.9h1100A28.9,28.9,0,0,1,2454,1879Z" class="color3f5988 svgShape"/><rect width="124.27" height="257.93" x="2077.78" y="1020.88" fill="#598dcc" class="color598dcc svgShape"/><polygon fill="#84bce2" points="2077.78 1020.88 2035.65 992.37 2035.65 1236.58 2077.78 1278.81 2077.78 1020.88" class="color84bce2 svgShape"/><rect width="148.24" height="37.1" x="2072.19" y="1003.9" fill="#3f6bb6" class="color3f6bb6 svgShape"/><polygon fill="#3f4f9d" points="2072.19 1003.9 2021.93 969.9 2021.93 1008.09 2072.19 1041 2072.19 1003.9" class="color3f4f9d svgShape"/><polygon fill="#2b3972" points="2220.44 1003.9 2173.18 969.35 2021.93 969.35 2072.19 1003.9 2220.44 1003.9" class="color2b3972 svgShape"/><path fill="#ffac5e" d="M1454.4,1433.14H1551a13.54,13.54,0,0,1,13.54,13.54v281.38a0,0,0,0,1,0,0H1440.86a0,0,0,0,1,0,0V1446.68A13.54,13.54,0,0,1,1454.4,1433.14Z" class="colorffac5e svgShape"/><path fill="#3f6bb6" d="M1552.81 1728.06H1451.26a10.4 10.4 0 01-10.4-10.39V1445.83a12.69 12.69 0 0112.69-12.69h98.31a12.69 12.69 0 0112.69 12.69v270.49A11.74 11.74 0 011552.81 1728.06zM1946.3 1728.06h-98.55a12.22 12.22 0 01-12.22-12.22v-270a12.69 12.69 0 0112.69-12.69h98.3a12.69 12.69 0 0112.69 12.69v269.31A12.91 12.91 0 011946.3 1728.06zM1713.6 1483.49h-19.94a84.54 84.54 0 00-84.54 84.54v284.8h189V1568A84.54 84.54 0 001713.6 1483.49z" class="color3f6bb6 svgShape"/><path fill="#ffffff" d="M1780.36,1825.59H1626.9a1.62,1.62,0,0,1-1.62-1.61V1600.86a78.35,78.35,0,1,1,156.7,0V1824A1.62,1.62,0,0,1,1780.36,1825.59Zm-151.85-3.22h150.24V1600.86a75.12,75.12,0,1,0-150.24,0Z" class="colorfff svgShape"/><path fill="#ffffff" d="M1758.52 1691a13 13 0 1113-13A13.06 13.06 0 011758.52 1691zm0-22.86a9.82 9.82 0 109.82 9.82A9.84 9.84 0 001758.52 1668.16zM1468.56 1433.14h91.59a12.69 12.69 0 0112.69 12.69v240.52a9.59 9.59 0 01-9.59 9.59h-97.44a9.94 9.94 0 01-9.94-9.94V1445.83A12.69 12.69 0 011468.56 1433.14z" class="colorfff svgShape"/><path fill="#84bce2" d="M1513.37,1692.64a3.23,3.23,0,0,1-3.23-3.23V1435.36a3.23,3.23,0,1,1,6.45,0v254.05A3.23,3.23,0,0,1,1513.37,1692.64Z" class="color84bce2 svgShape"/><path fill="#84bce2" d="M1575.57,1512.6H1455.68a3.23,3.23,0,0,1,0-6.45h119.89a3.23,3.23,0,1,1,0,6.45Z" class="color84bce2 svgShape"/><path fill="#ffffff" d="M1841.81,1433.14h91.59a12.69,12.69,0,0,1,12.69,12.69V1683.1a12.85,12.85,0,0,1-12.85,12.85H1840.6a11.48,11.48,0,0,1-11.48-11.48V1445.83A12.69,12.69,0,0,1,1841.81,1433.14Z" class="colorfff svgShape"/><path fill="#84bce2" d="M1887.61,1692.64a3.24,3.24,0,0,1-3.23-3.2l-2-252.76a3.23,3.23,0,1,1,6.45,0l2,252.76a3.23,3.23,0,0,1-3.2,3.25Z" class="color84bce2 svgShape"/><path fill="#84bce2" d="M1942.81,1512.6H1828.93a3.23,3.23,0,0,1,0-6.45h113.88a3.23,3.23,0,1,1,0,6.45Z" class="color84bce2 svgShape"/><path fill="#3f6a99" d="M1702.7,1383.76a69.34,69.34,0,1,1,69.33-69.33A69.42,69.42,0,0,1,1702.7,1383.76Z" class="color3f6a99 svgShape"/><circle cx="1702.7" cy="1314.43" r="56.17" fill="#ffffff" class="colorfff svgShape"/><path fill="#84bce2" d="M1758.64,1319H1645.86a3.23,3.23,0,1,1,0-6.45h112.78a3.23,3.23,0,0,1,0,6.45Z" class="color84bce2 svgShape"/><path fill="#84bce2" d="M1702.25,1374a3.23,3.23,0,0,1-3.23-3.22V1263.61a3.23,3.23,0,0,1,6.45,0v107.21A3.22,3.22,0,0,1,1702.25,1374Z" class="color84bce2 svgShape"/><path fill="#8fb993" d="M2841.4,2644.23h130.34S3099.16,2410,3041,2373.87C2965.9,2327.27,2868.44,2460.34,2841.4,2644.23Z" class="color8fb993 svgShape"/><path fill="#004f4c" d="M2893.45,2644.23h7.08l97.9-237.1c.54-1-.46-2-2.25-2.25s-3.68.25-4.22,1.2Z" class="color004f4c svgShape"/><path fill="#8fb993" d="M2815.9,2644.23H2671.58s-113.45-234.2-55.23-270.36C2691.4,2327.27,2788.86,2460.34,2815.9,2644.23Z" class="color8fb993 svgShape"/><path fill="#004f4c" d="M2758.55,2644.23h-7.08l-92.6-237.1c-.54-1,.46-2,2.24-2.25s3.69.25,4.23,1.2Z" class="color004f4c svgShape"/><path fill="#8fb993" d="M2803.09,2644.23h38.31c84.67-215.33,50.84-395.68-34.93-361.84S2803.09,2644.23,2803.09,2644.23Z" class="color8fb993 svgShape"/><path fill="#004f4c" d="M2825.55,2326.21l4.57,318h6.76l-4.57-318.05c0-1-1.56-1.76-3.42-1.78S2825.53,2325.22,2825.55,2326.21Z" class="color004f4c svgShape"/><path fill="#5c9772" d="M3715,2493.08h72.55s70.92-130.36,38.52-150.48C3784.33,2316.65,3730.08,2390.72,3715,2493.08Z" class="color5c9772 svgShape"/><path fill="#004f4c" d="M3744,2493.08h3.94l54.49-132c.3-.53-.26-1.08-1.25-1.24a2.45,2.45,0,0,0-2.35.66Z" class="color004f4c svgShape"/><path fill="#5c9772" d="M3700.83,2493.08H3620.5s-63.14-130.36-30.74-150.48C3631.53,2316.65,3685.78,2390.72,3700.83,2493.08Z" class="color5c9772 svgShape"/><path fill="#004f4c" d="M3668.91,2493.08H3665l-51.54-132c-.3-.53.26-1.08,1.25-1.24a2.45,2.45,0,0,1,2.35.66Z" class="color004f4c svgShape"/><path fill="#5c9772" d="M3693.71,2493.08H3715c47.13-119.86,28.29-220.24-19.44-201.41S3693.71,2493.08,3693.71,2493.08Z" class="color5c9772 svgShape"/><path fill="#004f4c" d="M3706.2,2316.06l2.55,177h3.76l-2.54-177c0-.55-.87-1-1.9-1S3706.19,2315.51,3706.2,2316.06Z" class="color004f4c svgShape"/><polygon fill="#fdcd37" fill-rule="evenodd" points="2354.8 331.69 2386.14 325.86 2447.85 328.73 2415.87 342.39 2354.8 331.69" class="colorfdcd37 svgShape"/><polygon fill="#7b2638" fill-rule="evenodd" points="2405.5 1243.85 2421.09 1239.22 2447.85 328.73 2426.91 333.96 2405.5 889.38 2405.5 1243.85" class="color7b2638 svgShape"/><polygon fill="#b5541e" fill-rule="evenodd" points="2426.91 333.95 2415.98 782.05 2411.64 960.67 2410.38 1018.79 2408.5 1105.25 2405.5 1243.84 2350.44 1234.73 2351.06 1095.9 2351.46 999.9 2351.76 934.31 2352.59 775.27 2354.81 331.67 2426.91 333.95" class="colorb5541e svgShape"/><polygon fill="#61114a" fill-rule="evenodd" points="2415.99 782.05 2411.63 960.69 2351.76 934.32 2352.58 775.28 2415.99 782.05" opacity=".5" class="color61114a svgShape"/><polygon fill="#ba5f1a" fill-rule="evenodd" points="2410.38 1018.79 2408.5 1105.25 2351.06 1095.9 2351.46 999.9 2410.38 1018.79" opacity=".2" class="colorba5f1a svgShape"/><polygon fill="#fdcd37" fill-rule="evenodd" points="2833.77 386.9 2034.6 360.47 1977.66 375.18 2444.97 405.64 2790.9 411.03 2833.77 386.9" class="colorfdcd37 svgShape"/><path fill="#e9682e" fill-rule="evenodd" d="M2790.9,411l-1.46,45.14,0,1.38,0,1,0,1.32-.89,27.82,0,1.33,0,1,0,1.38-1.5,45.93,0,1.35,0,1,0,1.33L2785.54,577l-.05,1.38,0,1,0,1.35-.9,27.75-.05,1.35,0,1.14,0,1.35-.54,16.4,0,1.35,0,1.05,0,1.33-1.94,59.88,0,1.39,0,1,0,1.38-.63,19,0,1.36,0,1,0,1.37-.4,12.67-.05,1.37,0,1.07-.05,1.36-2.82,87.18,0,1.4-.05,1-.05,1.37-.56,17.47,0,1.7v.07l-111.41-5.64-5.62-.28h0l-4.4-.24h0l-6.08-.3-383.2-19.4h0l-9.63-.49h0l-6.83-.35-10.15-.51-252.76-12.8-.21-10,0-1.36,0-1,0-1.38-.72-34.62-.05-1.38,0-1,0-1.37-.56-26.58,0-1.38,0-1.14,0-1.38-.7-32.83,0-1.35,0-1.14,0-1.36-.58-27.6,0-1.33,0-1,0-1.33-.54-25.53,0-1.33v-1l0-1.36-.52-25.34,0-1.35,0-1,0-1.36L1982,583.9l0-1.38v-1l0-1.37-.44-21.78,0-1.35,0-1,0-1.35-1.6-76.86,0-1.37,0-1.12,0-1.36-.28-13.8,0-1.35,0-1.24,0-1.37-1-47.59,0-1.36,0-1,0-1.37-.63-29.8Z" class="colore9682e svgShape"/><polygon fill="#7b2638" fill-rule="evenodd" points="2833.77 386.88 2823.19 554.07 2809.41 803.49 2787.71 830.89 2776.88 845.54 2783.64 636.4 2783.83 630.29 2784.31 615.12 2784.71 603.61 2788.01 500.78 2788.49 485.75 2790.91 411.02 2833.77 386.88" class="color7b2638 svgShape"/><path fill="#ffffff" d="M2219.23 583.17l-45.65-1.34 4-135.41 110.06 3.25-1 34.43-64.42-1.9zm-.8-77.85l59.58 1.76-1 34.43-59.57-1.76zM2368.09 590.67a86.55 86.55 0 01-30.32-6.12A71.86 71.86 0 012313.93 569a68.07 68.07 0 01-15.29-23 73 73 0 011.67-56.58 68.3 68.3 0 0116.62-22 71.83 71.83 0 0124.72-14.08 91.87 91.87 0 0161 1.8 72.27 72.27 0 0123.74 15.51 68.52 68.52 0 0115.3 22.91A73 73 0 012440 550.2a68.16 68.16 0 01-16.62 22.07 72.19 72.19 0 01-24.62 14.08A86.27 86.27 0 012368.09 590.67zm1.09-36.95a30.25 30.25 0 0012-2 28.48 28.48 0 009.87-6.38 30.52 30.52 0 006.8-10.45 44.76 44.76 0 00.84-28.44 30.61 30.61 0 00-6.17-10.83 28.76 28.76 0 00-9.48-7 31.66 31.66 0 00-23.79-.7 28.65 28.65 0 00-9.87 6.39 30.35 30.35 0 00-6.79 10.45 44.73 44.73 0 00-.84 28.43 30.28 30.28 0 006.17 10.83 28.34 28.34 0 009.47 7A30.18 30.18 0 002369.18 553.72zM2461.22 590.32l4-135.4 65.19 1.92q18.95.57 32.6 7.16t20.85 18.33q7.21 11.75 6.74 27.41t-8.34 26.76q-7.87 11.09-21.88 16.68t-33 5L2487.56 557l20.87-18.16-1.56 52.8zm47.06-46.43l-19.7-21.29 37 1.09q9.46.28 14.15-3.84t4.89-11.47q.21-7.35-4.21-11.75T2526.47 492l-36.95-1.09 20.92-20.09zm34 48.83l-31.82-50.31 48.36 1.43 32.2 50.32zM2105.49 776.66l4-135.41 65.18 1.93q19 .55 32.61 7.16t20.85 18.33q7.2 11.73 6.74 27.4t-8.34 26.76q-7.87 11.08-21.89 16.68t-33 5l-39.85-1.18 20.87-18.16L2151.14 778zm47.06-46.43l-19.7-21.3 37 1.09q9.47.29 14.15-3.84t4.88-11.47q.23-7.35-4.2-11.74t-13.9-4.67l-36.94-1.09 20.92-20.1zm34 48.82l-31.82-50.31 48.36 1.43 32.2 50.32zM2295.49 747.81l67.7 2-1 34.43-112.58-3.32 4-135.41 110.07 3.25-1 34.43-65.18-1.92zm-1.6-50.77l60.35 1.78-1 32.88-60.35-1.78zM2379.77 784.76l4-135.4 37.53 1.1 66.43 84.44-17.41-.51 2.43-82.41 44.5 1.32-4 135.4-37.53-1.11-66.43-84.43 17.41.51-2.44 82.41zM2564.7 790.22l3-100L2528 689.05l1-35.4 125 3.69-1 35.4-39.66-1.17-3 100z" class="colorfff svgShape"/></g></svg>